<svg width="24" height="24" viewBox="0 0 24 24" fill="none" xmlns="http://www.w3.org/2000/svg">
<path d="M11.2005 13.3846H10.1339V14.4615H9.06719L9.06667 22H16.5333V16.6154H18.6667V14.4615H20.8V13.3846H19.7333V12.3077H11.2005V13.3846Z" fill="#938eba"/>
<path d="M13.3333 2V3.07692H12.2667V4.15385H11.2V8.46154H12.2667V9.53846H13.3333V10.6154H17.6V9.53846H18.6667V8.46154H19.7333V4.15385H18.6667V3.07692H17.6V2H13.3333Z" fill="#938eba"/>
<path d="M2.66667 14.4615H2.13333H1.06667V16.0769H0V22H6.93333H7.46667V14.4615H5.86667V13.3846H2.66667V14.4615Z" fill="#938eba"/>
<path d="M2.76603 6.64969H1.89395V7.53016H1.02188V10.5146H1.89395V11.3955H2.76603V12.276H5.72201V11.3955H6.59409V10.5146H7.46667V7.53016H6.59409V6.64969H5.72201V5.76923H2.76603V6.64969Z" fill="#938eba"/>
<path d="M24 18.2308H21.8667V16.0769H20.2667V18.2308H18.1333V19.8462H20.2667V22H21.8667V19.8462H24V18.2308Z" fill="#938eba"/>
</svg>
