<svg xmlns="http://www.w3.org/2000/svg" width="16" height="16" fill="none" viewBox="0 0 16 16"><path fill="#C3B0D0" d="M10.813 2.875h.937V1h-.937zm-6.563 0h.938V1H4.25zm8.438 3.25V8h-.938v.938h-.937v.937h-.938v.938h-.937v.937H8v.938h-.937v.937h-.938v-.937h-.937v-.938H4.25v-.937h-.937V8.937h1.874v.938h.938v.938h.938v-.938H8v-.937h.938V8h.937v-.937h.938v-.938zM1.938 15h12.125v-.937H1.938z"/><path fill="#C3B0D0" d="M1.938 1.938v.937H1v11.188h.938V5.188h12.125v8.875H15V2.874h-.937v-.937h-1.376v1.875H9.876V1.937h-3.75v1.876H3.313V1.937z"/></svg>