<svg xmlns="http://www.w3.org/2000/svg" width="24" height="24" fill="none" viewBox="0 0 24 24"><path fill="#fff" d="M1.5 8.063v6.562h1.313v1.313h1.312v1.312h1.313v1.313h7.875v1.312h1.312v1.313h1.313V22.5H22.5v-6.562h-1.312v1.312h-1.313v-1.312h-1.312v-1.313H17.25v-1.312h-1.312V5.437h-1.313V4.126h-1.312V2.813h1.312V1.5H8.063v2.625h1.312v1.313h1.313V6.75H12v3.938h-1.312V12H12v1.313h-1.312v1.312H6.75v-1.312H5.438V12H4.125v-1.312H2.813V9.375h1.312V8.063z"/><path fill="#fff" d="M18.563 5.438H17.25v7.875h1.313zm0 9.187h1.312v-1.312h-1.312zm2.625 1.313v-1.313h-1.313v1.313zm-5.25-13.125h-1.313v1.312h1.313zm1.312 2.625V4.125h-1.312v1.313zM6.75 12v1.313h3.938V12zm0-1.312H5.438V12H6.75zM5.438 9.375H4.125v1.313h1.313z"/></svg>