<?xml version="1.0" encoding="UTF-8" ?>
<svg version="1.1" width="40" height="40" xmlns="http://www.w3.org/2000/svg" shape-rendering="crispEdges">
<rect x="16" y="7" width="1" height="1" fill="#F1C77D" />
<rect x="17" y="7" width="1" height="1" fill="#FDEBCC" />
<rect x="23" y="7" width="1" height="1" fill="#EFA119" />
<rect x="24" y="7" width="1" height="1" fill="#D37405" />
<rect x="15" y="8" width="1" height="1" fill="#F1C77D" />
<rect x="16" y="8" width="2" height="2" fill="#544B54" />
<rect x="18" y="8" width="2" height="1" fill="#FDEBCC" />
<rect x="20" y="8" width="2" height="1" fill="#F1C77D" />
<rect x="22" y="8" width="1" height="1" fill="#EFA119" />
<rect x="23" y="8" width="2" height="2" fill="#544B54" />
<rect x="25" y="8" width="1" height="1" fill="#D37405" />
<rect x="14" y="9" width="1" height="1" fill="#EFA119" />
<rect x="15" y="9" width="1" height="2" fill="#544B54" />
<rect x="18" y="9" width="5" height="1" fill="#544B54" />
<rect x="25" y="9" width="1" height="2" fill="#544B54" />
<rect x="26" y="9" width="1" height="1" fill="#EFA119" />
<rect x="14" y="10" width="1" height="4" fill="#181717" />
<rect x="16" y="10" width="1" height="1" fill="#ABABAB" />
<rect x="17" y="10" width="1" height="2" fill="#544B54" />
<rect x="18" y="10" width="5" height="1" fill="#FFFFFF" />
<rect x="23" y="10" width="1" height="1" fill="#544B54" />
<rect x="24" y="10" width="1" height="1" fill="#ABABAB" />
<rect x="26" y="10" width="1" height="4" fill="#040404" />
<rect x="15" y="11" width="1" height="2" fill="#2E2D2E" />
<rect x="16" y="11" width="1" height="1" fill="#544B54" />
<rect x="18" y="11" width="1" height="1" fill="#ABABAB" />
<rect x="19" y="11" width="1" height="1" fill="#544B54" />
<rect x="20" y="11" width="1" height="1" fill="#ABABAB" />
<rect x="21" y="11" width="1" height="1" fill="#544B54" />
<rect x="22" y="11" width="1" height="1" fill="#ABABAB" />
<rect x="23" y="11" width="1" height="1" fill="#818181" />
<rect x="24" y="11" width="1" height="1" fill="#544B54" />
<rect x="25" y="11" width="1" height="2" fill="#2E2D2E" />
<rect x="38" y="11" width="1" height="1" fill="#FDEBCC" />
<rect x="8" y="12" width="1" height="1" fill="#F1C77D" />
<rect x="9" y="12" width="2" height="1" fill="#FDEBCC" />
<rect x="13" y="12" width="1" height="1" fill="#D37405" />
<rect x="16" y="12" width="2" height="1" fill="#2E2D2E" />
<rect x="18" y="12" width="1" height="1" fill="#818181" />
<rect x="19" y="12" width="1" height="1" fill="#ABABAB" />
<rect x="20" y="12" width="1" height="1" fill="#FFFFFF" />
<rect x="21" y="12" width="1" height="1" fill="#ABABAB" />
<rect x="22" y="12" width="1" height="1" fill="#818181" />
<rect x="23" y="12" width="2" height="1" fill="#2E2D2E" />
<rect x="27" y="12" width="1" height="1" fill="#D37405" />
<rect x="30" y="12" width="2" height="1" fill="#F1C77D" />
<rect x="32" y="12" width="1" height="1" fill="#EFA119" />
<rect x="37" y="12" width="1" height="1" fill="#FDEBCC" />
<rect x="38" y="12" width="1" height="1" fill="#EFA119" />
<rect x="39" y="12" width="1" height="1" fill="#D37405" />
<rect x="8" y="13" width="1" height="1" fill="#040404" />
<rect x="9" y="13" width="2" height="1" fill="#2E2D2E" />
<rect x="11" y="13" width="1" height="1" fill="#F1C77D" />
<rect x="12" y="13" width="1" height="1" fill="#EFA119" />
<rect x="13" y="13" width="1" height="3" fill="#2E2D2E" />
<rect x="15" y="13" width="1" height="2" fill="#181717" />
<rect x="16" y="13" width="1" height="1" fill="#2E2D2E" />
<rect x="17" y="13" width="1" height="1" fill="#818181" />
<rect x="18" y="13" width="1" height="1" fill="#181717" />
<rect x="19" y="13" width="1" height="1" fill="#FFFFFF" />
<rect x="20" y="13" width="1" height="1" fill="#181717" />
<rect x="21" y="13" width="1" height="1" fill="#FFFFFF" />
<rect x="22" y="13" width="1" height="1" fill="#181717" />
<rect x="23" y="13" width="1" height="1" fill="#818181" />
<rect x="24" y="13" width="1" height="1" fill="#2E2D2E" />
<rect x="25" y="13" width="1" height="3" fill="#040404" />
<rect x="27" y="13" width="1" height="3" fill="#2E2D2E" />
<rect x="28" y="13" width="1" height="1" fill="#EFA119" />
<rect x="29" y="13" width="1" height="1" fill="#F1C77D" />
<rect x="30" y="13" width="2" height="1" fill="#2E2D2E" />
<rect x="32" y="13" width="1" height="1" fill="#040404" />
<rect x="36" y="13" width="1" height="1" fill="#F1C77D" />
<rect x="37" y="13" width="1" height="1" fill="#EFA119" />
<rect x="38" y="13" width="1" height="1" fill="#D37405" />
<rect x="9" y="14" width="1" height="1" fill="#181717" />
<rect x="10" y="14" width="3" height="1" fill="#2E2D2E" />
<rect x="14" y="14" width="1" height="1" fill="#2E2D2E" />
<rect x="16" y="14" width="9" height="1" fill="#040404" />
<rect x="26" y="14" width="1" height="1" fill="#2E2D2E" />
<rect x="28" y="14" width="3" height="1" fill="#2E2D2E" />
<rect x="31" y="14" width="1" height="1" fill="#181717" />
<rect x="35" y="14" width="1" height="1" fill="#F1C77D" />
<rect x="36" y="14" width="1" height="1" fill="#EFA119" />
<rect x="37" y="14" width="1" height="1" fill="#D37405" />
<rect x="1" y="15" width="1" height="1" fill="#FDEBCC" />
<rect x="9" y="15" width="1" height="1" fill="#040404" />
<rect x="10" y="15" width="1" height="1" fill="#181717" />
<rect x="11" y="15" width="2" height="1" fill="#2E2D2E" />
<rect x="14" y="15" width="2" height="1" fill="#040404" />
<rect x="16" y="15" width="9" height="1" fill="#7A0505" />
<rect x="26" y="15" width="1" height="1" fill="#040404" />
<rect x="28" y="15" width="2" height="1" fill="#2E2D2E" />
<rect x="30" y="15" width="1" height="1" fill="#181717" />
<rect x="31" y="15" width="1" height="1" fill="#040404" />
<rect x="34" y="15" width="1" height="1" fill="#E6904E" />
<rect x="35" y="15" width="1" height="1" fill="#EFA119" />
<rect x="36" y="15" width="1" height="1" fill="#D37405" />
<rect x="0" y="16" width="1" height="1" fill="#D37405" />
<rect x="1" y="16" width="1" height="1" fill="#EFA119" />
<rect x="2" y="16" width="1" height="1" fill="#FDEBCC" />
<rect x="10" y="16" width="2" height="1" fill="#040404" />
<rect x="12" y="16" width="1" height="1" fill="#181717" />
<rect x="13" y="16" width="1" height="1" fill="#040404" />
<rect x="14" y="16" width="1" height="1" fill="#500303" />
<rect x="15" y="16" width="1" height="1" fill="#7A0505" />
<rect x="16" y="16" width="1" height="1" fill="#C40A0A" />
<rect x="17" y="16" width="1" height="1" fill="#F73143" />
<rect x="18" y="16" width="1" height="1" fill="#FF4758" />
<rect x="19" y="16" width="2" height="1" fill="#FF6B79" />
<rect x="21" y="16" width="2" height="1" fill="#FF4758" />
<rect x="23" y="16" width="1" height="1" fill="#F73143" />
<rect x="24" y="16" width="1" height="1" fill="#C40A0A" />
<rect x="25" y="16" width="1" height="1" fill="#7A0505" />
<rect x="26" y="16" width="1" height="1" fill="#500303" />
<rect x="27" y="16" width="1" height="1" fill="#040404" />
<rect x="28" y="16" width="1" height="1" fill="#181717" />
<rect x="29" y="16" width="2" height="1" fill="#040404" />
<rect x="33" y="16" width="1" height="1" fill="#E6904E" />
<rect x="34" y="16" width="1" height="3" fill="#CD683D" />
<rect x="35" y="16" width="1" height="5" fill="#9E4539" />
<rect x="37" y="16" width="1" height="1" fill="#EFA119" />
<rect x="1" y="17" width="1" height="1" fill="#D37405" />
<rect x="2" y="17" width="1" height="1" fill="#EFA119" />
<rect x="3" y="17" width="1" height="1" fill="#F1C77D" />
<rect x="12" y="17" width="1" height="1" fill="#040404" />
<rect x="13" y="17" width="1" height="1" fill="#500303" />
<rect x="14" y="17" width="1" height="1" fill="#A21010" />
<rect x="15" y="17" width="1" height="1" fill="#C40A0A" />
<rect x="16" y="17" width="1" height="1" fill="#553B24" />
<rect x="17" y="17" width="3" height="1" fill="#FB9D38" />
<rect x="20" y="17" width="1" height="2" fill="#E17C0F" />
<rect x="21" y="17" width="2" height="1" fill="#FB9D38" />
<rect x="23" y="17" width="1" height="1" fill="#553B24" />
<rect x="24" y="17" width="1" height="1" fill="#F73143" />
<rect x="25" y="17" width="1" height="1" fill="#C40A0A" />
<rect x="26" y="17" width="1" height="1" fill="#A21010" />
<rect x="27" y="17" width="1" height="1" fill="#500303" />
<rect x="28" y="17" width="1" height="1" fill="#040404" />
<rect x="33" y="17" width="1" height="1" fill="#CD683D" />
<rect x="36" y="17" width="1" height="1" fill="#EFA119" />
<rect x="2" y="18" width="1" height="1" fill="#D37405" />
<rect x="3" y="18" width="1" height="1" fill="#EFA119" />
<rect x="4" y="18" width="1" height="1" fill="#F1C77D" />
<rect x="13" y="18" width="1" height="1" fill="#A21010" />
<rect x="14" y="18" width="1" height="1" fill="#C40A0A" />
<rect x="15" y="18" width="1" height="5" fill="#FB9D38" />
<rect x="16" y="18" width="1" height="1" fill="#E17C0F" />
<rect x="17" y="18" width="1" height="1" fill="#553B24" />
<rect x="18" y="18" width="1" height="1" fill="#E17C0F" />
<rect x="19" y="18" width="1" height="4" fill="#FB9D38" />
<rect x="21" y="18" width="1" height="4" fill="#FB9D38" />
<rect x="22" y="18" width="1" height="1" fill="#553B24" />
<rect x="23" y="18" width="2" height="1" fill="#E17C0F" />
<rect x="25" y="18" width="1" height="5" fill="#FB9D38" />
<rect x="26" y="18" width="1" height="1" fill="#C40A0A" />
<rect x="27" y="18" width="1" height="1" fill="#A21010" />
<rect x="32" y="18" width="1" height="2" fill="#5E391A" />
<rect x="33" y="18" width="1" height="1" fill="#9E4539" />
<rect x="3" y="19" width="1" height="1" fill="#D37405" />
<rect x="4" y="19" width="1" height="1" fill="#EFA119" />
<rect x="5" y="19" width="1" height="1" fill="#E6904E" />
<rect x="13" y="19" width="1" height="1" fill="#500303" />
<rect x="14" y="19" width="1" height="1" fill="#7A0505" />
<rect x="16" y="19" width="1" height="1" fill="#050300" />
<rect x="17" y="19" width="1" height="1" fill="#FFFFFF" />
<rect x="18" y="19" width="1" height="1" fill="#553B24" />
<rect x="20" y="19" width="1" height="3" fill="#FB9D38" />
<rect x="22" y="19" width="1" height="2" fill="#050200" />
<rect x="23" y="19" width="1" height="1" fill="#FFFFFF" />
<rect x="24" y="19" width="1" height="2" fill="#E17C0F" />
<rect x="26" y="19" width="1" height="1" fill="#7A0505" />
<rect x="27" y="19" width="1" height="1" fill="#500303" />
<rect x="33" y="19" width="1" height="1" fill="#F6B2C2" />
<rect x="34" y="19" width="1" height="2" fill="#9E4539" />
<rect x="2" y="20" width="1" height="1" fill="#EFA119" />
<rect x="4" y="20" width="1" height="5" fill="#9E4539" />
<rect x="5" y="20" width="1" height="3" fill="#CD683D" />
<rect x="6" y="20" width="1" height="1" fill="#E6904E" />
<rect x="13" y="20" width="1" height="1" fill="#553C23" />
<rect x="14" y="20" width="1" height="2" fill="#E17C0F" />
<rect x="16" y="20" width="1" height="1" fill="#050200" />
<rect x="17" y="20" width="1" height="1" fill="#050300" />
<rect x="18" y="20" width="1" height="1" fill="#E17C0F" />
<rect x="23" y="20" width="1" height="1" fill="#060200" />
<rect x="26" y="20" width="1" height="2" fill="#E17C0F" />
<rect x="27" y="20" width="1" height="1" fill="#553B24" />
<rect x="33" y="20" width="1" height="1" fill="#5E391A" />
<rect x="3" y="21" width="1" height="1" fill="#EFA119" />
<rect x="6" y="21" width="1" height="1" fill="#CD683D" />
<rect x="12" y="21" width="2" height="1" fill="#500303" />
<rect x="16" y="21" width="3" height="1" fill="#FB9D38" />
<rect x="22" y="21" width="3" height="1" fill="#FB9D38" />
<rect x="27" y="21" width="2" height="1" fill="#500303" />
<rect x="6" y="22" width="1" height="1" fill="#9E4539" />
<rect x="7" y="22" width="1" height="2" fill="#5E391A" />
<rect x="12" y="22" width="1" height="2" fill="#500303" />
<rect x="13" y="22" width="1" height="1" fill="#A00808" />
<rect x="14" y="22" width="1" height="5" fill="#500303" />
<rect x="16" y="22" width="2" height="3" fill="#FFFFFF" />
<rect x="18" y="22" width="1" height="1" fill="#563B24" />
<rect x="19" y="22" width="1" height="1" fill="#E8B9C4" />
<rect x="20" y="22" width="1" height="1" fill="#7E442C" />
<rect x="21" y="22" width="1" height="1" fill="#E9B9C4" />
<rect x="22" y="22" width="1" height="1" fill="#563B24" />
<rect x="23" y="22" width="1" height="1" fill="#FFFFFE" />
<rect x="24" y="22" width="1" height="3" fill="#FFFFFF" />
<rect x="26" y="22" width="1" height="5" fill="#500303" />
<rect x="27" y="22" width="1" height="1" fill="#A00808" />
<rect x="28" y="22" width="1" height="2" fill="#500303" />
<rect x="5" y="23" width="1" height="2" fill="#9E4539" />
<rect x="6" y="23" width="1" height="1" fill="#F6B2C2" />
<rect x="13" y="23" width="1" height="3" fill="#F1C77D" />
<rect x="15" y="23" width="1" height="1" fill="#FFFFFF" />
<rect x="18" y="23" width="2" height="1" fill="#553B23" />
<rect x="20" y="23" width="1" height="1" fill="#FFFFFF" />
<rect x="21" y="23" width="2" height="1" fill="#553B23" />
<rect x="23" y="23" width="1" height="3" fill="#FFFFFF" />
<rect x="25" y="23" width="1" height="1" fill="#FFFFFF" />
<rect x="27" y="23" width="1" height="3" fill="#F1C77D" />
<rect x="6" y="24" width="1" height="1" fill="#5E391A" />
<rect x="11" y="24" width="1" height="2" fill="#500303" />
<rect x="12" y="24" width="1" height="3" fill="#A00808" />
<rect x="15" y="24" width="1" height="2" fill="#FFA2C8" />
<rect x="18" y="24" width="1" height="1" fill="#FFFFFF" />
<rect x="19" y="24" width="3" height="1" fill="#AE2334" />
<rect x="22" y="24" width="1" height="1" fill="#FFFFFF" />
<rect x="25" y="24" width="1" height="2" fill="#FFA2C8" />
<rect x="28" y="24" width="1" height="3" fill="#A00808" />
<rect x="29" y="24" width="1" height="2" fill="#500303" />
<rect x="16" y="25" width="1" height="2" fill="#FFA2C8" />
<rect x="17" y="25" width="1" height="1" fill="#FFFFFF" />
<rect x="18" y="25" width="1" height="1" fill="#FFFEFF" />
<rect x="19" y="25" width="3" height="2" fill="#FFFFFF" />
<rect x="22" y="25" width="1" height="1" fill="#FFFEFF" />
<rect x="24" y="25" width="1" height="2" fill="#FFA2C8" />
<rect x="10" y="26" width="1" height="2" fill="#500303" />
<rect x="11" y="26" width="1" height="3" fill="#A00808" />
<rect x="13" y="26" width="1" height="1" fill="#A00808" />
<rect x="15" y="26" width="1" height="3" fill="#EA6CA0" />
<rect x="17" y="26" width="1" height="2" fill="#FFA2C8" />
<rect x="18" y="26" width="1" height="1" fill="#E7E1D2" />
<rect x="22" y="26" width="1" height="1" fill="#E7E1D2" />
<rect x="23" y="26" width="1" height="2" fill="#FFA2C8" />
<rect x="25" y="26" width="1" height="3" fill="#EA6CA0" />
<rect x="27" y="26" width="1" height="1" fill="#A00808" />
<rect x="29" y="26" width="1" height="3" fill="#A00808" />
<rect x="30" y="26" width="1" height="2" fill="#500303" />
<rect x="12" y="27" width="1" height="2" fill="#F79617" />
<rect x="13" y="27" width="1" height="2" fill="#500303" />
<rect x="14" y="27" width="1" height="2" fill="#EA6CA0" />
<rect x="16" y="27" width="1" height="2" fill="#EA6CA0" />
<rect x="18" y="27" width="1" height="2" fill="#FFA2C8" />
<rect x="19" y="27" width="3" height="1" fill="#E7E1D2" />
<rect x="22" y="27" width="1" height="2" fill="#FFA2C8" />
<rect x="24" y="27" width="1" height="2" fill="#EA6CA0" />
<rect x="26" y="27" width="1" height="2" fill="#EA6CA0" />
<rect x="27" y="27" width="1" height="2" fill="#500303" />
<rect x="28" y="27" width="1" height="2" fill="#F79617" />
<rect x="9" y="28" width="1" height="1" fill="#500303" />
<rect x="10" y="28" width="1" height="1" fill="#A00808" />
<rect x="17" y="28" width="1" height="1" fill="#EA6CA0" />
<rect x="19" y="28" width="3" height="1" fill="#FFA2C8" />
<rect x="23" y="28" width="1" height="1" fill="#EA6CA0" />
<rect x="30" y="28" width="1" height="1" fill="#A00808" />
<rect x="31" y="28" width="1" height="1" fill="#500303" />
<rect x="8" y="29" width="1" height="1" fill="#500303" />
<rect x="9" y="29" width="1" height="2" fill="#A00808" />
<rect x="10" y="29" width="2" height="1" fill="#D37405" />
<rect x="12" y="29" width="1" height="3" fill="#500303" />
<rect x="13" y="29" width="1" height="1" fill="#9BABB2" />
<rect x="14" y="29" width="1" height="1" fill="#2E222F" />
<rect x="15" y="29" width="1" height="1" fill="#9BABB2" />
<rect x="16" y="29" width="2" height="1" fill="#2E222F" />
<rect x="18" y="29" width="2" height="1" fill="#9BABB2" />
<rect x="20" y="29" width="2" height="1" fill="#2E222F" />
<rect x="22" y="29" width="1" height="1" fill="#9BABB2" />
<rect x="23" y="29" width="2" height="1" fill="#2E222F" />
<rect x="25" y="29" width="1" height="1" fill="#9BABB2" />
<rect x="26" y="29" width="1" height="1" fill="#2E222F" />
<rect x="27" y="29" width="1" height="1" fill="#9BABB2" />
<rect x="28" y="29" width="1" height="3" fill="#500303" />
<rect x="29" y="29" width="2" height="1" fill="#D37405" />
<rect x="31" y="29" width="1" height="2" fill="#A00808" />
<rect x="32" y="29" width="1" height="1" fill="#500303" />
<rect x="7" y="30" width="1" height="1" fill="#500303" />
<rect x="8" y="30" width="1" height="1" fill="#A00808" />
<rect x="10" y="30" width="2" height="1" fill="#A00808" />
<rect x="13" y="30" width="1" height="1" fill="#C7DCD0" />
<rect x="14" y="30" width="1" height="2" fill="#625565" />
<rect x="15" y="30" width="1" height="2" fill="#C7DCD0" />
<rect x="16" y="30" width="2" height="2" fill="#625565" />
<rect x="18" y="30" width="2" height="2" fill="#C7DCD0" />
<rect x="20" y="30" width="2" height="3" fill="#625565" />
<rect x="22" y="30" width="1" height="3" fill="#C7DCD0" />
<rect x="23" y="30" width="2" height="2" fill="#625565" />
<rect x="25" y="30" width="1" height="2" fill="#C7DCD0" />
<rect x="26" y="30" width="1" height="2" fill="#625565" />
<rect x="27" y="30" width="1" height="1" fill="#C7DCD0" />
<rect x="29" y="30" width="2" height="1" fill="#A00808" />
<rect x="32" y="30" width="1" height="1" fill="#A00808" />
<rect x="33" y="30" width="1" height="1" fill="#500303" />
<rect x="8" y="31" width="4" height="1" fill="#500303" />
<rect x="13" y="31" width="1" height="1" fill="#2E222F" />
<rect x="27" y="31" width="1" height="1" fill="#2E222F" />
<rect x="29" y="31" width="4" height="1" fill="#500303" />
<rect x="13" y="32" width="1" height="1" fill="#553C23" />
<rect x="14" y="32" width="1" height="1" fill="#2E222F" />
<rect x="15" y="32" width="1" height="1" fill="#625565" />
<rect x="16" y="32" width="1" height="1" fill="#C7DCD0" />
<rect x="17" y="32" width="2" height="1" fill="#625565" />
<rect x="19" y="32" width="1" height="1" fill="#C7DCD0" />
<rect x="23" y="32" width="1" height="1" fill="#625565" />
<rect x="24" y="32" width="1" height="1" fill="#C7DCD0" />
<rect x="25" y="32" width="1" height="1" fill="#625565" />
<rect x="26" y="32" width="1" height="1" fill="#2E222F" />
<rect x="27" y="32" width="1" height="1" fill="#553B24" />
<rect x="12" y="33" width="1" height="1" fill="#553B23" />
<rect x="13" y="33" width="1" height="1" fill="#C77C8D" />
<rect x="14" y="33" width="1" height="1" fill="#C87C8D" />
<rect x="15" y="33" width="1" height="1" fill="#2E222F" />
<rect x="16" y="33" width="1" height="1" fill="#9BABB2" />
<rect x="17" y="33" width="2" height="1" fill="#2E222F" />
<rect x="19" y="33" width="1" height="1" fill="#9BABB2" />
<rect x="20" y="33" width="1" height="1" fill="#2E222F" />
<rect x="21" y="33" width="1" height="1" fill="#9BABB2" />
<rect x="22" y="33" width="2" height="1" fill="#2E222F" />
<rect x="24" y="33" width="1" height="1" fill="#9BABB2" />
<rect x="25" y="33" width="1" height="1" fill="#2E222F" />
<rect x="26" y="33" width="1" height="1" fill="#C87C8D" />
<rect x="27" y="33" width="1" height="1" fill="#C87C8E" />
<rect x="28" y="33" width="1" height="1" fill="#543B23" />
</svg>