<svg xmlns="http://www.w3.org/2000/svg" width="16" height="16" fill="none" viewBox="0 0 16 16"><path fill="#fff" d="M14.667 2.667v2H14v.666h-.667v-.666h-.666V4H12v-.667h-.667v-.666H12V2h2v.667zm-3.334 6.666H12V14h-.667v.666h-10V14H.667V4h.666v-.667h8V4h-.666v.667H2v8.666h8.667V10h.666z"/><path fill="#fff" d="M12 5.333h.667v1.334H12v.666h-.667V8h-.666v.667H10v.666h-.667V10h-.666v.667H8v.666h-.667V12H4.667V9.333h.666v-.666H6V8h.667v-.667h.666v-.666H8V6h.667v-.667h.666v-.666H10V4h1.333v.667H12z"/></svg>