<svg width="24" height="24" viewBox="0 0 24 24" fill="none" xmlns="http://www.w3.org/2000/svg">
    <path d="M21.434 11.478H23V9.913h-1.566V8.348H19.87v1.565h-6.304v1.565h6.304v1.565h1.566v-1.565h-.002zm-1.56-3.13V6.783h-1.565v1.565h1.565zm0 6.261v-1.565h-1.565v1.565h1.565z" fill="#6A668A"/>
    <path d="M16.739 1H1v18.348h.565v.521H3.13v.522h1.566v.522H6.26v.522h1.565v.521H9.39v.522h1.565V23h1.566v-3.652h4.217v-6.305h-1.565v4.74h-2.652V5.695h-1.566v-.522H9.391v-.522H7.826V4.13H6.261v-.52H4.696v-.522H3.13v-.522h12.044v5.783h1.565V1z" fill="#6A668A"/>
</svg>
