<svg width="28" height="28" viewBox="0 0 28 28" fill="none" xmlns="http://www.w3.org/2000/svg">
<path fill-rule="evenodd" clip-rule="evenodd" d="M4.15625 5.79688V7.4375H2.51563V9.07813H0.875V25.4844H2.51563V27.125H25.4844V25.4844H27.125V9.07813H25.4844V7.4375H23.8438V5.79688H4.15625ZM9.07813 7.4375V9.07813H7.4375V14H20.5625V9.07813H18.9219V7.4375H20.5625V9.07813H22.2031V14H25.4844V15.6406H22.2031V25.4844H20.5625V15.6406H15.6406V17.2813H17.2813V20.5625H15.6406V22.2031H12.3594V20.5625H10.7188V17.2813H12.3594V15.6406H7.4375V25.4844H5.79688V15.6406H2.51563V14H5.79688V9.07813H7.4375V7.4375H9.07813Z" fill="#938EBA"/>
<path d="M5.79688 14V15.6406H7.4375V14H5.79688Z" fill="#938EBA"/>
<path d="M12.3594 17.2813V20.5625H15.6406V17.2813H12.3594Z" fill="#938EBA"/>
<path d="M20.5625 15.6406H22.2031V14H20.5625V15.6406Z" fill="#938EBA"/>
<path d="M17.2813 4.15625V0.875H18.9219V4.15625H17.2813Z" fill="#938EBA"/>
<path d="M23.8438 2.51563V4.15625H25.4844V2.51563H23.8438Z" fill="#938EBA"/>
<path d="M27.125 2.51563V0.875H25.4844V2.51563H27.125Z" fill="#938EBA"/>
<path d="M9.07813 4.15625H10.7188V0.875H9.07813V4.15625Z" fill="#938EBA"/>
<path d="M4.15625 4.15625V2.51563H2.51563V4.15625H4.15625Z" fill="#938EBA"/>
<path d="M0.875 0.875V2.51563H2.51563V0.875H0.875Z" fill="#938EBA"/>
</svg>
