<svg xmlns="http://www.w3.org/2000/svg" width="15" height="16" fill="none" viewBox="0 0 15 16"><path fill="#C3B0D0" d="M8.667 0H6v.667h2.667zm-2 .667h-4v.666h4zm5.333 0H8v.666h4z"/><path fill="#C3B0D0" d="M3.333 1.333H.667V2h2.666zm5.334 0H6v2h2.667zm5.333 0h-2.667V2H14zM2 2H0v2.667h2zm4 0H4v1.333h2zm4.667 0h-2v1.333h2zm4 0h-2v2.667h2zM3.333 3.333H2v2h1.333zm9.334 0h-1.334v2h1.334zM11.333 4h-8v2h8zM2 4.667H.667v.666H2zm12 0h-1.333v.666H14zM2 5.333h-.667v7.334H2zm11.333 0h-.666v7.334h.666zm-4 1.334h-4v.666h4zm-4 .666h-2V8h2zm6 0h-2V8h2zm-8 .667h-.666v3.333h.666zM12 8h-.667v3.333H12zm-6.667.667h-2v.666h2zm6 0h-2v.666h2zM10 9.333H4V10h6zm1.333 0h-.666V10h.666zM4 10h-.667v2H4zm6.667 0h-6v.667h6z"/><path fill="#C3B0D0" d="M1.333 10.667H.667v.666h.666zm4.667 0H4v.666h2zm2.667 0h-2v.666h2zm2.666 0h-2V12h2zm2.667 0h-.667v.666H14zm-13.333.666H0v3.334h.667zm4.666 0H4v1.334h1.333zm2.667 0H6v1.334h2zm1.333 0h-.666v1.334h.666zm5.334 0H14v3.334h.667zm-12 .667H2v1.333h.667zM6 12h-.667v.667H6zm2.667 0H8v.667h.667zm2 0H9.333v.667h1.334zm2 0H12v1.333h.667zm-9.334.667h-.666V14h.666zm8.667 0h-.667V14H12zm-10.667.666H.667v2h.666zm10 0h-8V14h8zm2.667 0h-.667v2H14z"/><path fill="#C3B0D0" d="M2 14h-.667v2H2zm11.333 0h-.666v2h.666zm-.666.667H2V16h10.667z"/></svg>