<svg width="32" height="32" viewBox="0 0 24 24" fill="none" xmlns="http://www.w3.org/2000/svg">
    <path fill-rule="evenodd" clip-rule="evenodd" d="M5.053 3.75h13.894v1.27h1.264v1.268h1.263v1.27h1.263v5.077H24v5.077h-1.263v1.269h-1.263v1.269h-2.527v-1.27h-1.263v-1.268h-1.263v-1.27h-1.263v-1.269H8.842v1.27H7.58v1.268H6.316v1.27H5.053v1.269H2.526v-1.27H1.263v-1.268H0v-5.077h1.263V7.558h1.263v-1.27H3.79V5.02h1.264V3.75zm.631 6.346v1.27h2.527v-1.27h1.263V7.558H8.21v-1.27H5.684v1.27H4.421v2.538h1.263zm0 0V7.558h2.527v2.538H5.684zm7.58-1.27h2.526v1.27h-2.527v-1.27zm6.315 1.27h-2.526v1.27h2.526v-1.27z" fill="#938EBA"/>
</svg>
