<svg xmlns="http://www.w3.org/2000/svg" width="25" height="24" fill="none" viewBox="0 0 25 24"><path fill="#2F3045" fill-rule="evenodd" d="M2.75.75v1.5h3v1.5h-1.5v1.5h-1.5v-3h-1.5v4.5h1.5v4.5h-1.5v6h1.5v3h1.5v1.5h3v-1.5h-1.5v-1.5h1.5v-1.5h10.5v1.5h1.5v1.5h-1.5v1.5h3v-1.5h1.5v-3h1.5v-6h-1.5v-4.5h1.5v-4.5h-1.5v3h-1.5v-1.5h-1.5v-1.5h3V.75h-4.5v1.5H7.25V.75zm6 13.5v-3h1.5v1.5h1.5v-1.5h1.5v1.5h1.5v-1.5h1.5v3h-3v-1.5h-1.5v1.5zm-1.5-4.5h3v-1.5h-1.5v-1.5h-1.5zm7.5-3v3h3v-1.5h-1.5v-1.5z" clip-rule="evenodd"/><path fill="#2F3045" d="M7.25 23.25h10.5v-1.5H7.25z"/></svg>