<svg xmlns="http://www.w3.org/2000/svg" width="16" height="16" fill="none" viewBox="0 0 16 16"><path fill="#A29EC1" d="M4.652 9.5H2.5v5h2.152zm6.218.714v.715h-.957v.714H7.044v-.714h2.87V9.5H5.37v4.285h.717v.715h3.825v-.714h1.435v-.715h.717v-.714h.718v-.714h.717v-1.429z"/><path fill="#A29EC1" fill-rule="evenodd" d="M3.956 2.98H3.45v3.038h.506V7.03h.507v.507h.506v.506H5.98v.506h3.04v-.506h1.012v-.506h.507V7.03h.506V6.018h.506V2.98h-.506V1.968h-.506v-.506h-.507V.955H9.02V.45H5.98v.506H4.97v.507h-.506v.506h-.507zm1.52.507v-.76h.505v-.506H9.02v.506h.506v1.52H9.02v.505h-.506v.507h.506v.506h.506v1.012H8.513V5.765h-.507v-.506H7.5v-.507h-.506v2.025H5.98V4.752h-.506v-.759h.506v-.506z" clip-rule="evenodd"/><path fill="#A29EC1" d="M6.994 2.727v1.52H8.26v-.254h.253V2.98H8.26v-.253z"/></svg>