<svg width="28" height="28" viewBox="0 0 28 28" fill="none" xmlns="http://www.w3.org/2000/svg">
    <path d="M15.065 1.75h-2.13v1.598h2.13V1.75zM11.337 4.946H9.739v1.598h1.598V4.946zM9.74 6.544H8.14V8.14H9.74V6.544zM8.141 8.141H6.544V9.74H8.14V8.141zM6.544 9.74H4.946v1.597h1.598V9.739zM4.946 11.337H3.348v1.598h1.598v-1.598zM3.348 12.935H1.75v1.598h1.598v-1.598zM18.26 1.75v3.196h-1.597v1.597h1.598v1.598h1.598V3.348h1.597v7.989h1.598V1.75h-4.793zM16.663 3.348h-1.598v1.598h1.598V3.348zM12.935 3.348h-1.598v1.598h1.598V3.348zM24.652 11.337h-1.598v1.598h1.598v-1.598zM26.25 12.935h-1.598v1.598h1.598v-1.598z" fill="#938EBA"/>
    <path d="M23.054 14.533v-1.598h-1.598v-1.598H19.86V9.739H18.26V8.141h-1.598V6.543h-1.598V4.947h-2.13v1.598h-1.598V8.14H9.739V9.74H8.141v1.598H6.544v1.598H4.945v1.598H3.348V26.25h7.456v-9.587h6.392v9.587h7.456V14.533h-1.598z" fill="#938EBA"/>
</svg>
