<svg width="24" height="24" viewBox="0 0 24 24" fill="none" xmlns="http://www.w3.org/2000/svg">
    <path d="M1.5 8.063v5.25h1.313v1.312h1.312v6.563h1.313v-5.25h2.625v5.25h1.312v-5.25H12v-1.313H9.375V6.75H12V5.437H4.125V6.75H2.812v1.313H1.5zM14.625 17.25v-1.313H12v1.313h2.625z" fill="#938EBA"/>
    <path d="M5.438 22.5h2.625v-1.313H5.437V22.5zM14.625 18.563h1.313V17.25h-1.313v1.313z" fill="#938EBA"/>
    <path d="M15.938 19.875h2.624v-1.313h-2.625v1.313zM19.875 18.563v-3.938h1.313v-1.313H22.5v-5.25h-1.313V6.75h-1.312V2.812h-1.313v15.75h1.313zM15.938 1.5v1.313h2.624V1.5h-2.625z" fill="#938EBA"/>
    <path d="M14.625 2.813v1.312h1.313V2.812h-1.313zM12 4.125v1.313h2.625V4.125H12z" fill="#938EBA"/>
</svg>
