<svg xmlns="http://www.w3.org/2000/svg" width="20" height="20" fill="none" viewBox="0 0 20 20"><rect width="19" height="19" x="0.5" y="0.5" stroke="#FF4242" rx="1.5"/><path fill="#FF4242" d="M3 3v1.75h.875v.875h.875v3.5h.875V8.25h1.75v-.875h.875v-1.75h.875V4.75H10V3z"/><path fill="#FF4242" d="M8.25 10V8.25h-.875v.875h-1.75V10H4.75v1.75h.875v-.875h1.75V10z"/><path fill="#FF4242" d="M5.625 12.625H4.75v1.75h.875V13.5h1.75v-.875h.875v-1.75h-.875v.875h-1.75z"/><path fill="#FF4242" d="M5.625 15.25H4.75v.875h.875V17h1.75v-.875h.875V13.5h-.875v.875h-1.75z"/><path fill="#FF4242" fill-rule="evenodd" d="M10 11.75v3.5h.875v.875h.875V17h3.5v-.875h.875v-.875H17v-3.5h-.875v-.875h-.875V10h-3.5v.875h-.875v.875zm1.75 2.625v-1.75h.875v-.875h1.75v.875h.875v1.75h-.875v.875h-1.75v-.875z" clip-rule="evenodd"/></svg>