<svg xmlns="http://www.w3.org/2000/svg" width="16" height="16" fill="none" viewBox="0 0 16 16"><path fill="#fff" d="M1 1v1.75h.875v.875h.875v3.5h.875V6.25h1.75v-.875h.875v-1.75h.875V2.75H8V1z"/><path fill="#fff" d="M6.25 8V6.25h-.875v.875h-1.75V8H2.75v1.75h.875v-.875h1.75V8z"/><path fill="#fff" d="M3.625 10.625H2.75v1.75h.875V11.5h1.75v-.875h.875v-1.75h-.875v.875h-1.75z"/><path fill="#fff" d="M3.625 13.25H2.75v.875h.875V15h1.75v-.875h.875V11.5h-.875v.875h-1.75z"/><path fill="#fff" fill-rule="evenodd" d="M8 9.75v3.5h.875v.875h.875V15h3.5v-.875h.875v-.875H15v-3.5h-.875v-.875h-.875V8h-3.5v.875h-.875v.875zm1.75 2.625v-1.75h.875V9.75h1.75v.875h.875v1.75h-.875v.875h-1.75v-.875z" clip-rule="evenodd"/></svg>