<svg xmlns="http://www.w3.org/2000/svg" width="24" height="24" fill="none" viewBox="0 0 24 24"><g fill="#C3B0D0" clip-path="url(#a)"><path d="M3.25 2H2v1.25h1.25zM4.5 2H3.25v1.25H4.5zm1.25 0H4.5v1.25h1.25zM7 2H5.75v1.25H7zm1.25 0H7v1.25h1.25zM9.5 2H8.25v1.25H9.5zm1.25 0H9.5v1.25h1.25zM12 2h-1.25v1.25H12zm1.25 0H12v1.25h1.25zm1.25 0h-1.25v1.25h1.25zm1.25 0H14.5v1.25h1.25zM17 2h-1.25v1.25H17zm1.25 0H17v1.25h1.25zm1.25 0h-1.25v1.25h1.25zm1.25 0H19.5v1.25h1.25zM22 2h-1.25v1.25H22zM3.25 3.25H2V4.5h1.25zm12.5 0H14.5V4.5h1.25zm1.25 0h-1.25V4.5H17zm1.25 0H17V4.5h1.25zm1.25 0h-1.25V4.5h1.25zm2.5 0h-1.25V4.5H22zM3.25 4.5H2v1.25h1.25zm11.25 0h-1.25v1.25h1.25zm1.25 0H14.5v1.25h1.25zm1.25 0h-1.25v1.25H17zm1.25 0H17v1.25h1.25zm3.75 0h-1.25v1.25H22zM3.25 5.75H2V7h1.25zm10 0H12V7h1.25zm1.25 0h-1.25V7h1.25zm1.25 0H14.5V7h1.25zm1.25 0h-1.25V7H17zm5 0h-1.25V7H22zM3.25 7H2v1.25h1.25zM12 7h-1.25v1.25H12zm1.25 0H12v1.25h1.25zm1.25 0h-1.25v1.25h1.25zm1.25 0H14.5v1.25h1.25zM22 7h-1.25v1.25H22zM3.25 8.25H2V9.5h1.25zm7.5 0H9.5V9.5h1.25zm1.25 0h-1.25V9.5H12zm1.25 0H12V9.5h1.25zm1.25 0h-1.25V9.5h1.25zm7.5 0h-1.25V9.5H22zM3.25 9.5H2v1.25h1.25zm6.25 0H8.25v1.25H9.5zm1.25 0H9.5v1.25h1.25zm1.25 0h-1.25v1.25H12zm1.25 0H12v1.25h1.25zm8.75 0h-1.25v1.25H22zM3.25 10.75H2V12h1.25zm5 0H7V12h1.25zm1.25 0H8.25V12H9.5zm1.25 0H9.5V12h1.25zm1.25 0h-1.25V12H12zm10 0h-1.25V12H22zM3.25 12H2v1.25h1.25zM7 12H5.75v1.25H7zm1.25 0H7v1.25h1.25zm1.25 0H8.25v1.25H9.5zm1.25 0H9.5v1.25h1.25zM22 12h-1.25v1.25H22zM3.25 13.25H2v1.25h1.25zm1.25 0H3.25v1.25H4.5zm1.25 0H4.5v1.25h1.25zm1.25 0H5.75v1.25H7zm1.25 0H7v1.25h1.25zm1.25 0H8.25v1.25H9.5zm1.25 0H9.5v1.25h1.25zm1.25 0h-1.25v1.25H12zm1.25 0H12v1.25h1.25zm1.25 0h-1.25v1.25h1.25zm1.25 0H14.5v1.25h1.25zm1.25 0h-1.25v1.25H17zm1.25 0H17v1.25h1.25zm1.25 0h-1.25v1.25h1.25zm1.25 0H19.5v1.25h1.25zm1.25 0h-1.25v1.25H22zM3.25 14.5H2v1.25h1.25zm1.25 0H3.25v1.25H4.5zm1.25 0H4.5v1.25h1.25zm1.25 0H5.75v1.25H7zm1.25 0H7v1.25h1.25zm1.25 0H8.25v1.25H9.5zm1.25 0H9.5v1.25h1.25zm1.25 0h-1.25v1.25H12zm1.25 0H12v1.25h1.25zm1.25 0h-1.25v1.25h1.25zm1.25 0H14.5v1.25h1.25zm1.25 0h-1.25v1.25H17zm2.5 0h-1.25v1.25h1.25zm2.5 0h-1.25v1.25H22zM3.25 15.75H2V17h1.25zm1.25 0H3.25V17H4.5zm1.25 0H4.5V17h1.25zm1.25 0H5.75V17H7zm1.25 0H7V17h1.25zm1.25 0H8.25V17H9.5zm1.25 0H9.5V17h1.25zm1.25 0h-1.25V17H12zm1.25 0H12V17h1.25zm1.25 0h-1.25V17h1.25zm1.25 0H14.5V17h1.25zm1.25 0h-1.25V17H17zm1.25 0H17V17h1.25zm1.25 0h-1.25V17h1.25zm1.25 0H19.5V17h1.25zm1.25 0h-1.25V17H22zM12 17h-1.25v1.25H12zm1.25 0H12v1.25h1.25zM12 18.25h-1.25v1.25H12zm1.25 0H12v1.25h1.25zM7 19.5H5.75v1.25H7zm1.25 0H7v1.25h1.25zm1.25 0H8.25v1.25H9.5zm1.25 0H9.5v1.25h1.25zm1.25 0h-1.25v1.25H12zm1.25 0H12v1.25h1.25zm1.25 0h-1.25v1.25h1.25zm1.25 0H14.5v1.25h1.25zm1.25 0h-1.25v1.25H17zm1.25 0H17v1.25h1.25zM7 20.75H5.75V22H7zm1.25 0H7V22h1.25zm1.25 0H8.25V22H9.5zm1.25 0H9.5V22h1.25zm1.25 0h-1.25V22H12zm1.25 0H12V22h1.25zm1.25 0h-1.25V22h1.25zm1.25 0H14.5V22h1.25zm1.25 0h-1.25V22H17zm1.25 0H17V22h1.25z"/></g><defs><clipPath id="a"><path fill="#fff" d="M2 2h20v20H2z"/></clipPath></defs></svg>