<svg xmlns="http://www.w3.org/2000/svg" width="16" height="17" fill="none" viewBox="0 0 16 17"><g fill="#fff" filter="url(#a)"><path d="M16 16v-1H5v-1H4v1H2v-1H1v-2H0v4z"/><path d="M3 13v1h1v-1zm-1-1v1h1v-1zm0-1H1v1h1zm1-1H2v1h1zm1 0V9H3v1zm1-2H4v1h1zm1 0V7H5v1zm1-2H6v1h1zm1 0V5H7v1zm1-2H8v1h1zm1 0V3H9v1zm1-2h-1v1h1zm1 2V3h-1v1zm0 1h1V4h-1zm1 1h1V5h-1zm-1 0v1h1V6zm3-1V4h1V2h-1v2h-1v1zm-1-4v1h1V1zm0-1h-2v1h-1v1h1V1h2zM6 14v-1H5v1zm1-2H6v1h1zm1 0v-1H7v1zm1-2H8v1h1zm1-2v1h1V8zM9 9v1h1V9zm3-2h-1v1h1z"/></g><defs><filter id="a" width="16" height="17" x="0" y="0" color-interpolation-filters="sRGB" filterUnits="userSpaceOnUse"><feFlood flood-opacity="0" result="BackgroundImageFix"/><feColorMatrix in="SourceAlpha" result="hardAlpha" values="0 0 0 0 0 0 0 0 0 0 0 0 0 0 0 0 0 0 127 0"/><feOffset dy="1"/><feComposite in2="hardAlpha" operator="out"/><feColorMatrix values="0 0 0 0 0 0 0 0 0 0 0 0 0 0 0 0 0 0 0.25 0"/><feBlend in2="BackgroundImageFix" result="effect1_dropShadow_13645_7570"/><feBlend in="SourceGraphic" in2="effect1_dropShadow_13645_7570" result="shape"/></filter></defs></svg>