<svg xmlns="http://www.w3.org/2000/svg" width="12" height="12" fill="none" viewBox="0 0 12 12"><path fill="#8E8198" d="M3.703 5.016h1.313V3.703H3.703zm4.594 3.281V6.984H6.984v1.313z"/><path fill="#8E8198" fill-rule="evenodd" d="M1.406 7.969H.75V4.03h.656V2.72h.657v-.656h.656v-.657H4.03V.75h3.94v.656h1.31v.657h.656v.656h.657V4.03h.656v3.94h-.656v1.31h-.656v.656H9.28v.657H7.97v.656H4.03v-.656H2.72v-.656h-.656V9.28h-.657zm1.64-4.266v1.313h.657v.656h1.313v-.656h.656V3.703h-.656v-.656H3.703v.656zm0 4.594v.656h.657v-.656h.656V7.64h.657v-.657h.656v-.656h.656v-.656h.656v-.656h.657v-.657h.656v-.656h.656v-.656h-.656v.656H7.64v.656h-.657v.657h-.656v.656h-.656v.656h-.656v.656h-.657v.657h-.656v.656zm3.938-1.969v.656h-.656v1.313h.656v.656h1.313v-.656h.656V6.984h-.656v-.656z" clip-rule="evenodd"/></svg>