<svg xmlns="http://www.w3.org/2000/svg" width="20" height="20" fill="none" viewBox="0 0 20 20"><path fill="#fff" d="M17.857 16.548v1.31h-1.31v1.31h2.62v-2.62z"/><path fill="#fff" d="M16.548 17.858v-1.31h-1.31v1.31zm-1.31-1.31v-1.31h-1.31v1.31zm-1.309-3.928v1.31h1.309v-1.31z"/><path fill="#fff" d="M13.929 15.239v-1.31h-1.31v1.31zm3.928 0h-1.31v1.31h1.31zm-2.619-1.309v1.309h1.31v-1.31zm-3.928 0H4.761v1.309h6.547zm1.309 0v-1.31h-1.31v1.31zm1.31-2.62h-1.31v1.31h1.31zm1.309 0V4.763h-1.31v6.547zM4.762 10V6.073h-1.31v3.929zm-1.31 1.31h-1.31v1.31h1.31zm1.31 2.62v-1.31h-1.31v1.31zM.833 4.763v6.547h1.31V4.763zm2.619 0v-1.31h-1.31v1.31z"/><path fill="#fff" d="M4.762 2.144h-1.31v1.309h1.31zm1.309 3.928v-1.31h-1.31v1.31zM7.38 3.453H6.072v1.31h1.31zm3.93-1.309V.834H4.761v1.31z"/><path fill="#fff" d="M12.619 3.453v-1.31h-1.31v1.31zm1.31 1.31v-1.31h-1.31v1.31z"/></svg>