<svg xmlns="http://www.w3.org/2000/svg" width="20" height="20" fill="none" viewBox="0 0 20 20"><rect width="19" height="19" x="0.5" y="0.5" stroke="#2BD600" rx="1.5"/><path fill="#2BD600" d="M12.625 11.75H17V5.625h-1.75v-1.75h-.875v1.75H11.75v-1.75h-.875v1.75h-1.75v5.25h3.5zM8.25 3.875v1.75h.875v-1.75zm-1.75 7h1.75v-5.25H6.5zM10.875 3h-1.75v.875h1.75zm3.5 0H11.75v.875h2.625zM17 14.375v-1.75h-3.5v.875h-.875v.875h-3.5V13.5h3.5v-1.75H6.5v4.375h.875V17H13.5v-.875h1.75v-.875h.875v-.875zM5.625 11.75V17H3v-5.25z"/></svg>