<svg xmlns="http://www.w3.org/2000/svg" width="23" height="24" fill="none" viewBox="0 0 23 24"><g fill="#2F3045" filter="url(#a)"><path d="M5.5 9.5V8h-4v1.5H0v4h1.5V15h4v-1.5H7v-4zm16-8V0H18v1.5h-1.5v2h-2V5H18v1.5h3.5V5H23V1.5zM9.5 8H7v1.5h2.5zm0 5.5H7V15h2.5zm2.5-7H9.5V8H12zm0 8.5H9.5v1.5H12zm2.5-10H12v1.5h2.5zm0 11.5H12V18h2.5zm7 1.5v-1.5H18V18h-3.5v1.5h2v2H18V23h3.5v-1.5H23V18z"/></g><defs><filter id="a" width="23" height="24" x="0" y="0" color-interpolation-filters="sRGB" filterUnits="userSpaceOnUse"><feFlood flood-opacity="0" result="BackgroundImageFix"/><feColorMatrix in="SourceAlpha" result="hardAlpha" values="0 0 0 0 0 0 0 0 0 0 0 0 0 0 0 0 0 0 127 0"/><feOffset dy="1"/><feColorMatrix values="0 0 0 0 0 0 0 0 0 0 0 0 0 0 0 0 0 0 0.25 0"/><feBlend in2="BackgroundImageFix" result="effect1_dropShadow_13037_20014"/><feBlend in="SourceGraphic" in2="effect1_dropShadow_13037_20014" result="shape"/></filter></defs></svg>