<svg xmlns="http://www.w3.org/2000/svg" width="24" height="25" fill="none" viewBox="0 0 24 25"><g filter="url(#a)"><path fill="#fff" d="M1.5 1.5v21h2.625v-1.312h1.313v-1.313H6.75v-1.312h1.313V17.25h1.312v-1.312h1.313V22.5h2.624v-1.312h1.313v-1.313h1.313v-1.312h1.312V17.25h1.313v-1.312h1.312v-1.313h1.313v-1.312H22.5v-2.626h-1.312V9.376h-1.313V8.063h-1.312V6.75H17.25V5.438h-1.312V4.125h-1.313V2.813h-1.312V1.5h-2.626v6.563H9.376V6.75H8.063V5.438H6.75V4.125H5.438V2.813H4.125V1.5z"/></g><defs><filter id="a" width="21" height="23" x="1.5" y="1.5" color-interpolation-filters="sRGB" filterUnits="userSpaceOnUse"><feFlood flood-opacity="0" result="BackgroundImageFix"/><feColorMatrix in="SourceAlpha" result="hardAlpha" values="0 0 0 0 0 0 0 0 0 0 0 0 0 0 0 0 0 0 127 0"/><feOffset dy="2"/><feColorMatrix values="0 0 0 0 0 0 0 0 0 0 0 0 0 0 0 0 0 0 0.25 0"/><feBlend in2="BackgroundImageFix" result="effect1_dropShadow_1419_42693"/><feBlend in="SourceGraphic" in2="effect1_dropShadow_1419_42693" result="shape"/></filter></defs></svg>