<svg width="28" height="28" viewBox="0 0 28 28" fill="none" xmlns="http://www.w3.org/2000/svg">
    <path d="M4.813 26.25H1.75V12.469h1.531v-1.531h1.531V9.405h1.532V7.875h1.531V6.344h1.531V4.812h1.531v-1.53h1.532V1.75h3.062v1.531h1.531v1.531h1.532v1.532h1.531v1.531h1.531v1.531h1.532v1.531h1.53v1.532h1.532V26.25h-3.063V15.531h-1.53V14H6.343v1.531H4.812V26.25z" fill="#938EBA"/>
    <path d="M10.938 15.531v4.594h6.124v-4.594h-2.296v1.531h-1.532v-1.53h-2.296zM14.766 21.656v4.594h6.125v-4.594h-2.297v1.532h-1.532v-1.532h-2.296zM7.11 21.656v4.594h6.124v-4.594h-2.296v1.532H9.405v-1.532H7.11z" fill="#938EBA"/>
</svg>
