<svg width="28" height="28" viewBox="0 0 28 28" fill="none" xmlns="http://www.w3.org/2000/svg">
    <path d="M4.3.875H.874v1.712h3.424V.875zM13.996 25.413h-2.854v1.712h2.854v-1.712zM23.699 25.413h-2.853v1.712h2.853v-1.712zM25.417 22.561h-1.712v2.854h1.712V22.56z" fill="#938EBA"/>
    <path d="M9.437 20.849v4.565h1.712v-2.853h2.853v2.853h1.712v-2.853h3.424v2.853h1.712v-2.853h2.854v-1.712H9.437zM6.01 5.44V2.585H4.298v4.565H6.01v5.136h1.712v-1.712h4.565V7.152H14v3.425h5.136V7.15h1.713v3.425h4.565v1.711h1.712V5.44H6.01zM20.845 12.288v5.136h-1.712v-5.136h-5.136v5.136h-1.712v-5.136H7.719v8.56h1.712v-1.712h14.267v-1.712h1.712v-5.136h-4.565z" fill="#938EBA"/>
</svg>
