<svg xmlns="http://www.w3.org/2000/svg" width="17" height="17" fill="none" viewBox="0 0 17 17"><path fill="#C3B0D0" fill-rule="evenodd" d="M15.5 1h-14v1.25h1.91v2.5h.635v.625h.637V6h.636v.625h.637v.625h.636v.625h.636V8.5h-.636v.625h-.636v.625h-.637v.625h-.636V11h-.637v.625H3.41v3.125H1.5V16h14v-1.25h-1.91v-3.125h-.636V11h-.636v-.625h-.636V9.75h-.636v-.625h-.637V8.5h-.636v-.625h.636V7.25h.636v-.625h.637V6h.636v-.625h.636V4.75h.637v-2.5H15.5zM4.682 2.25h7.636v1.875h-.636v.625h-.636v.625H5.955V4.75h-.637v-.625h-.636zm.636 10h-.636v.625h1.273v-.625h.636v-.625h.636V11h2.546v.625h.636v.625h.636v.625h1.273v-.625h-.636v-.625h-.636V11h-.637v-.625h-.636V9.75h-.637v-.625H7.864v.625h-.637v.625h-.636V11h-.636v.625h-.637z" clip-rule="evenodd"/></svg>