<svg width="28" height="28" viewBox="0 0 28 28" fill="none" xmlns="http://www.w3.org/2000/svg">
<path fill-rule="evenodd" clip-rule="evenodd" d="M0.875 12.3594H2.51563V25.4844H4.15625V27.125H23.8438V25.4844H25.4844V12.3594H27.125V7.4375H23.8438V5.79688H25.4844V2.51563H23.8438V0.875H22.2031V4.15625H18.9219V0.875H17.2813V2.51563H15.6406V5.79688H17.2813V7.4375H14V5.79688H12.3594V7.4375H10.7188V5.79688H5.79688V7.4375H4.15625V5.79688H2.51563V7.4375H0.875V12.3594ZM2.51563 9.07813V10.7188H5.79688V9.07813H2.51563ZM12.3594 15.6406V14H15.6406V15.6406H17.2813V20.5625H18.9219V23.8438H15.6406V22.2031H10.7188V20.5625H9.07813V17.2813H10.7188V18.9219H14V15.6406H12.3594ZM7.4375 9.07813V10.7188H10.7188V9.07813H7.4375ZM12.3594 9.07813V10.7188H15.6406V9.07813H12.3594ZM17.2813 9.07813V10.7188H20.5625V9.07813H17.2813ZM22.2031 9.07813V10.7188H25.4844V9.07813H22.2031Z" fill="#938EBA"/>
<path d="M12.3594 4.15625H10.7188V5.79688H12.3594V4.15625Z" fill="#938EBA"/>
<path d="M10.7188 2.51563H5.79688V4.15625H10.7188V2.51563Z" fill="#938EBA"/>
<path d="M4.15625 4.15625V5.79688H5.79688V4.15625H4.15625Z" fill="#938EBA"/>
</svg>
