<svg width="24" height="24" viewBox="0 0 24 24" fill="none" xmlns="http://www.w3.org/2000/svg">
<g filter="url(#filter0_d_387_773)">
<path fill-rule="evenodd" clip-rule="evenodd" d="M17.6 2H6.4V4.93333H2V9.8H3.46667V11.2667H4.93333V12.7333H6.4V14.2H7.86667V15.6667H9.33333V17.1333H10.8V18.6H7.86667V20.0667H6.4V22H17.6V20.0667H16.1333V18.6H13.2V17.1333H14.6667V15.6667H16.1333V14.2H17.6V12.7333H19.0667V11.2667H20.5333V9.8H22V4.93333H17.6V2ZM3.46667 6.4H6.4V9.8H4.93333V8.33333H3.46667V6.4ZM20.5333 6.4H17.6V9.8H19.0667V8.33333H20.5333V6.4Z" fill="#938EBA"/>
</g>
<defs>
<filter id="filter0_d_387_773" x="2" y="2" width="20" height="22" filterUnits="userSpaceOnUse" color-interpolation-filters="sRGB">
<feFlood flood-opacity="0" result="BackgroundImageFix"/>
<feColorMatrix in="SourceAlpha" type="matrix" values="0 0 0 0 0 0 0 0 0 0 0 0 0 0 0 0 0 0 127 0" result="hardAlpha"/>
<feOffset dy="2"/>
<feColorMatrix type="matrix" values="0 0 0 0 0 0 0 0 0 0 0 0 0 0 0 0 0 0 0.25 0"/>
<feBlend mode="normal" in2="BackgroundImageFix" result="effect1_dropShadow_387_773"/>
<feBlend mode="normal" in="SourceGraphic" in2="effect1_dropShadow_387_773" result="shape"/>
</filter>
</defs>
</svg>
