<svg xmlns="http://www.w3.org/2000/svg" width="12" height="12" fill="none" viewBox="0 0 12 12"><path fill="#E3A001" d="M.286 10.857V9.143h.572V8h.571V6.857H2V5.714h.572V4.571h.571V3.43h.572V2.286h.571V1.143h.572V.57h.571V0h1.143v.571h.571v.572h.572v1.143h.571v1.143h.572V4.57h.571v1.143H10v1.143h.572V8h.571v1.143h.572v1.714h-.572v.572h-.571V12H1.429v-.571H.858v-.572z"/><path fill="#F3C200" d="M.286 10.286V9.143h.572V8h.571V6.857H2V5.714h.572V4.571h.571V3.43h.572V2.286h.571V1.143h.572V.57h.571V0h1.143v.571h.571v.572h.572v1.143h.571v1.143h.572V4.57h.571v1.143H10v1.143h.572V8h.571v1.143h.572v1.143h-.572v.571h-.571v.572H1.429v-.572H.858v-.571z"/><path fill="#434343" fill-rule="evenodd" d="M5.429.571v.572h-.571v1.143h-.572v1.143h-.571V4.57h-.572v1.143h-.571v1.143H2V8h-.57v1.143H.858v1.143h.571v.571h9.143v-.571h.571V9.143h-.571V8H10V6.857h-.57V5.714h-.571V4.571h-.572V3.43h-.571V2.286h-.572V1.143h-.571V.57zm1.143.572H5.429v1.143h-.571v1.143h-.572V4.57h-.571v1.143h-.572v1.143h-.571V8H2v1.143h-.57v1.143h9.143V9.143H10V8h-.57V6.857h-.571V5.714h-.572V4.571h-.571V3.43h-.572V2.286h-.571zm0 2.286H5.429V8h1.143zm0 5.142H5.429v1.143h1.143z" clip-rule="evenodd"/></svg>