<svg width="100" height="100" fill="none" xmlns="http://www.w3.org/2000/svg"><g clip-path="url(#clip0_2615_65306)"><circle cx="50" cy="50" r="48.65" fill="url(#paint0_linear_2615_65306)" stroke="#8C4A00" stroke-width="1.3"/><circle cx="50" cy="50" r="43.1" fill="url(#paint1_linear_2615_65306)" stroke="url(#paint2_linear_2615_65306)" stroke-width="3"/><circle cx="50" cy="50" r="39.6" fill="url(#paint3_linear_2615_65306)" stroke="url(#paint4_linear_2615_65306)" stroke-width="4"/><circle cx="50.001" cy="50" r="42.017" stroke="#8C4A00" stroke-width="1.3"/><path d="M34.153 20.78H13.009v2.82h1.41v-1.41h22.553v-1.41h-2.82zm23.962 0v5.639h-5.639v5.638h1.41v-4.231h5.639V22.19h1.409v-1.41h-2.82zm22.552 0H65.162v1.41h16.915v5.638h1.409V20.78h-2.82zm-33.83 5.638h-2.819V20.78H41.2v1.41h1.41v5.638h5.638v4.229h1.41v-5.639h-2.82zm40.878.001v5.638h1.41v-5.639h-1.41zM13.01 29.237v2.82h1.41v-4.231h-1.41v1.41zm15.504-1.409h-2.819v4.229h1.41v-2.82h4.229v-1.41h-2.82zm7.049 1.409v2.82h1.409v-4.231h-1.41v1.41zm38.057-1.409h-8.458v4.229h1.41v-2.82h8.457v2.82h1.41v-4.231h-2.82z" fill="#DD7B00"/><path d="M13.01 33.467v1.41h1.41v-2.82h-1.41v1.41zm12.685 0v1.41h1.41v-2.82h-1.41v1.41zm9.868 0v1.41h1.409v-2.82h-1.41v1.41zm12.685 0v1.41h1.41v-2.82h-1.41v1.41zm4.229 0v1.41h1.41v-2.82h-1.41v1.41zm12.685 0v1.41h1.41v-2.82h-1.41v1.41zm22.553-1.409v1.41H76.438v-1.41H75.03v2.819h14.095v-2.82h-1.41z" fill="#E59824"/><path d="M13.01 36.286v2.819h1.41v-4.229h-1.41v1.41zm12.685 0v2.819h1.41v-4.229h-1.41v1.41zm9.868 0v2.819h1.409v-4.229h-1.41v1.41zm12.685 0v2.819h1.41v-4.229h-1.41v1.41zm4.229 0v2.819h1.41v-4.229h-1.41v1.41zm12.685-1.409v4.228h1.41v-4.229h-1.41z" fill="#EDA321"/><path d="M45.433 29.237h-2.819V23.6h-28.19v1.41h1.41v1.41h-1.41v18.323h1.41v1.41h1.409v-2.82h2.819v-1.41h1.41v-2.818h2.819v1.41H25.7V27.827h7.048v-1.41h1.41v1.41h2.818v12.685h1.41v-1.41h1.41v1.41h1.409v-1.41h1.41v-1.409h-1.41v-1.41h1.41v1.41h1.409v-1.41h1.41v1.41h1.409v1.41h1.41v-9.867h-2.82zm-29.6 9.867h1.41v1.41h-1.41v-1.41zm70.477-9.867h-4.23V23.6H59.528v5.639H53.89v9.866h1.41v-1.41h2.82v1.41h2.819v-1.41h2.819v2.82h1.409V27.826h11.276v5.641H87.72v-4.229h-1.41z" fill="#FFD953"/><path d="M21.47 43.333h-1.41v1.409h1.41v-1.41z" fill="#FFD953"/><path d="M35.567 22.19H14.423v1.41h23.964v-1.41h-2.82zm7.047 0h-2.82v1.41h2.82v-1.41zm16.913 0v1.41h2.82v-1.41h-2.82zm22.555 0H63.757v1.41h18.325v-1.41zm-36.65 5.639h-2.819v1.41h5.639v-1.41h-2.82zm11.278 0h-2.82v1.41h5.64v-1.41h-2.82zm25.37 0v1.41h2.82v-1.41h-2.82zm5.638 0h-1.41v1.41h1.41v-1.41zm-53.56 16.914h-8.457v1.41h11.277v-1.41h-2.82zm8.455 5.637v1.41h2.82v-1.41h-2.82zm5.638 0h-1.41v1.41h1.41v-1.41z" fill="#FEB73A"/><path d="M39.79 20.78h-1.41v1.41h1.41v-1.41zm23.963 0h-1.41v1.41h1.41v-1.41zM14.42 25.009h-1.41v1.41h1.41v-1.41zm71.884 1.41h-1.41v1.409h1.41v-1.41zm-52.152 1.409h-1.41v1.41h1.41v-1.41zm19.734 15.505h-1.41v1.41h1.41v-1.41zm-7.049 5.637h-1.41v1.41h1.41v-1.41zm39.467 0h-1.41v1.41h1.41v-1.41zM14.42 51.79h-1.41v1.409h1.41v-1.41z" fill="#FFF5D3"/><path d="M39.792 19.371h-1.41v1.41h1.41v-1.41zm23.963 0h-1.41v1.41h1.41v-1.41zm-25.373 1.411h-1.41v1.41h1.41v-1.41zm2.818 0h-1.409v1.41h1.41v-1.41zm21.145 0h-1.41v1.41h1.41v-1.41zm2.818 0h-1.41v1.41h1.41v-1.41z" fill="#FFE690"/><path d="M39.792 22.19h-1.41v1.41h1.41v-1.41zm23.963 0h-1.41v1.41h1.41v-1.41zM14.421 23.6h-1.41v1.41h1.41V23.6zm-1.41 1.41h-1.41v1.409h1.41v-1.41z" fill="#FFE690"/><path d="M15.83 25.01h-1.41v1.409h1.41v-1.41zm70.476 0h-1.41v1.409h1.41v-1.41z" fill="#FFE690"/><path d="M14.421 26.419h-1.41v1.409h1.41v-1.41zm19.735 0h-1.41v1.409h1.41v-1.41zm50.74 0h-1.41v1.409h1.41v-1.41zm2.82 0h-1.41v1.409h1.41v-1.41zm-54.973 1.41h-1.409v1.41h1.41v-1.41zm2.821 0h-1.41v1.41h1.41v-1.41zm50.742 0h-1.41v1.41h1.41v-1.41z" fill="#FFE690"/><path d="M34.156 29.238h-1.41v1.41h1.41v-1.41zm19.732 12.686h-1.41v1.41h1.41v-1.41zm-1.41 1.41h-1.41v1.409h1.41v-1.41z" fill="#FFE690"/><path d="M55.296 43.334h-1.41v1.409h1.41v-1.41zm-1.408 1.409h-1.41v1.41h1.41v-1.41zm-7.047 2.819h-1.41v1.409h1.41v-1.41zm39.465 0h-1.41v1.409h1.41v-1.41zM45.43 48.971h-1.41v1.41h1.41v-1.41zm2.82 0h-1.41v1.41h1.41v-1.41zm36.646 0h-1.41v1.41h1.41v-1.41zm2.82 0h-1.41v1.41h1.41v-1.41zM14.421 50.38h-1.41v1.41h1.41v-1.41z" fill="#FFE690"/><path d="M46.841 50.38h-1.41v1.41h1.41v-1.41zm39.465 0h-1.41v1.41h1.41v-1.41zm-73.295 1.41h-1.41v1.41h1.41v-1.41zm2.819 0h-1.41v1.41h1.41v-1.41zm-1.409 1.41h-1.41v1.41h1.41V53.2z" fill="#FFE690"/><path d="M42.615 36.286h-1.41v1.41h1.41v-1.41z" fill="#FFED53"/><path d="M46.843 37.696h-1.41v-1.41h-1.41v1.41h-1.409v1.41h-1.41v1.409h-1.409v-1.41h-1.41v1.41h-1.409v5.638H25.7v-5.639h-1.41v-1.409h-2.819v2.82h-1.41v1.409h1.41v1.41h-1.41v-1.41h-2.819v2.819h-1.409v-1.41h-1.41v7.048h1.41v1.41h-1.41v7.047H25.7v-9.867h11.277v9.867h11.276V51.79h-5.64v-7.047h5.639v-5.638h-1.41v-1.41zm-29.599 1.409h-1.41v1.41h1.41v-1.41zM86.31 50.381v1.41H84.9v-1.41h-8.457v5.639H65.166V40.513h-1.409v-2.819h-2.819v1.41H58.12v-1.41H55.3v1.41h-1.41v4.229h1.41v1.409h-1.41v9.867h5.64v5.638h22.553v-5.639h5.638V50.38h-1.41z" fill="#FFED53"/><path d="M59.529 54.61H53.89v1.409h5.64v-1.41zm26.78 0H82.08v1.409h5.639v-1.41h-1.41zm-63.428 5.638h-8.458v1.41H25.7v-1.41h-2.819zm22.553 0h-8.458v1.41h11.278v-1.41h-2.82zm33.826 0H59.528v1.41H82.08v-1.41h-2.82z" fill="#FCF59F"/><path d="M48.248 40.515v4.229h-5.639v5.638h1.41v-4.229h5.638v-7.048h-1.41v1.41zm5.638 0v-1.41h-1.41v2.82h1.41v-1.41zm-25.372 4.229h8.458v-5.639h-1.41v4.229h-8.458v-4.229h-1.409v5.639h2.82zM14.42 48.972v-9.867h-1.41v11.278h1.41v-1.41z" fill="#FDA414"/><path d="M48.248 50.382v11.276H36.97V50.38H25.696v11.279H14.42V54.61h-1.41v8.458h14.096V51.79h8.458v11.278h14.095V48.971h-1.41v1.41zm39.467-1.41v7.048h-5.639v5.638H59.525v-5.639h-5.638v-9.867h-1.41V57.43h5.639v5.639h25.372v-5.641h5.638V48.97h-1.41z" fill="#FDA414"/><path d="M67.981 56.02h8.458v-5.64h7.047v-1.409h-8.458v5.639h-8.456V39.104h-1.409V56.02h2.82z" fill="#FDA414"/><path d="M66.573 20.78h16.915v5.64h1.409v-7.05H63.753v1.41h2.82zM13.011 23.6v-2.82h25.372v-1.409H11.6v5.639h1.41V23.6z" fill="#8C4A00"/><path d="M89.125 25.01h-2.82v1.409h2.82v8.457H75.029v-5.639h-8.457V54.61h8.458v-5.64h9.866v-1.41H73.618v5.64H67.98V30.647h5.64v5.639h16.915V25.008h-1.41zm-60.61 14.095v-8.458h4.229v-1.41h-5.639v14.097h8.458V29.237h-1.41v12.688h-5.638v-2.82z" fill="#8C4A00"/><path d="M87.716 47.562h-1.41v1.41h2.82v8.456h-5.64v5.638H58.115v-5.639h-5.638V44.742h-1.409v-1.409h1.41V26.418h5.638V20.78h4.229v-1.409h-5.64v5.639H45.43v-5.64h-5.638v1.41h4.229v5.638h5.638v19.733H44.02v2.82h1.41v-1.41h1.41v1.41h2.819v14.095H35.563V51.79h-8.457v11.277H13.011v-9.868h-1.41v11.278h16.916V53.199h5.638v11.278h16.914v-5.639h5.638v5.639h28.189v-5.639h5.638V47.562h-2.82z" fill="#8C4A00"/><path d="M13.011 50.38V26.418h-1.41V51.79h1.41v-1.41z" fill="#8C4A00"/><mask id="a" style="mask-type:alpha" maskUnits="userSpaceOnUse" x="8" y="8" width="84" height="84"><circle cx="50" cy="50" r="41.6" fill="#fff"/></mask><g mask="url(#a)"><path d="M43.985 61.684h-2.182v2.182h2.182v-2.182z" fill="#C47629"/><path d="M48.35 70.41h-2.182v4.365h4.364v-2.182H48.35V70.41zm13.09 2.183V70.41h-2.182v4.364h4.364v-2.182H61.44z" fill="#060200"/><path d="M57.08 76.958h-2.182v2.182h2.182v-2.182z" fill="#8E3C1D"/><path d="M63.625 74.775h-4.364V68.23h4.364v-4.364h-4.364v2.182H57.08v4.364h-2.182v-4.364h-2.182v-2.182H39.623v2.182h-2.182v10.91h2.182v4.364h4.364V79.14h2.182v-2.182h17.456v2.182h2.182v-4.364h-2.182zm-13.092 0H46.17V68.23h6.546v6.546h-2.182z" fill="#FB9D38"/><path d="M59.265 63.866v-2.182h-2.182v2.182h-4.364v2.181H54.9v4.365h2.182v-4.365h2.182v-2.181zM48.354 68.23h-2.182v2.181h4.364v4.364h2.182V68.23h-4.364zm13.09 0h-2.182v2.181h4.364V68.23h-2.182zm-24 4.363V68.23h-2.182v8.728h2.182v-4.364zm2.183 4.364h-2.182v4.364h2.182v-4.364zm0 6.547v2.182h2.182v-4.364h-2.182v2.182z" fill="#E17C0F"/><path d="M50.535 70.411h-2.181v2.182h2.181v-2.182zm13.092 0h-2.182v2.182h2.182v-2.182zm-.001 8.728v-2.182h-2.182v4.364H57.08v-2.182h-2.182v2.182h-4.364v-4.364H46.17v2.182h-2.182v8.728h2.182v2.182h2.182v2.182h15.274v-2.182h2.182v-10.91h-2.182z" fill="#fff"/><path d="M43.985 83.503v-2.182h-2.182v6.546h2.182v-4.364zm2.183 4.364h-2.182v2.182h2.182v-2.182zm2.182 2.182h-2.182v2.182h2.182v-2.182zm17.455 0h-2.182v2.182h2.182v-2.182z" fill="#E9E1D1"/><path d="M63.623 92.231v2.182H48.349v-2.182h-2.182V90.05h-2.182v-2.182h-2.182v6.546h2.182v2.182h2.182v2.182h17.456v-2.182h2.182v-4.364h-2.183z" fill="#D0C5AE"/><path d="M59.26 98.778H46.168v-2.182h-2.182v-2.182h-2.182v-8.728h-2.182v-4.364H37.44v-4.364h-4.364v2.182h2.182v4.364h-2.182v13.092h2.182v2.182h2.182v2.182h2.182v-2.182h4.364v2.182h17.456v-2.182H59.26z" fill="#BC6100"/><path d="M61.446 61.684h-2.182v2.182h4.364v4.364h2.182v-6.546h-4.364zm-21.818 2.182h2.182v-2.182h-6.546v6.546h2.182v-2.183h2.182v-2.181zm15.269 13.091h-2.182v2.182h2.182v-2.182zm4.367 0h-2.182v2.182h2.182v-2.182zM28.715 79.14v4.363h4.364V79.14h-4.364zm41.455 0h-2.182v4.363h4.364V79.14H70.17z" fill="#F6B2C2"/><path d="M39.62 61.684h4.364v-2.182h-8.728v2.182h4.364zm21.82 0h4.364v-2.182h-8.728v2.182h4.364zm-15.272 2.182h10.91v-2.182H43.986v2.182h2.182zm19.637 2.182v2.182h-2.182v6.546h2.182v-4.364h2.182v-8.728h-2.182v4.364zm-30.547 8.728V61.684h-2.182v15.274h2.182v-2.182zm-2.181 4.364v-2.182h-4.364v2.182h4.364zm19.634-2.182H50.53v4.364h4.364V79.14h-2.182v-2.182zm6.547 2.182h-2.182v2.182h4.364v-4.364h-2.182v2.182zm-30.547 0H26.53v4.364h2.182V79.14zm43.639 0v4.364h2.182V79.14H72.35zm-39.274 4.364h2.182V79.14h-2.182v4.364z" fill="#5E391A"/><path d="M67.985 83.503V79.14h4.364v-2.182h-4.364v-2.182h-2.182v21.82h2.182v-10.91h4.364v-2.182h-4.364zm-34.908 8.729v-8.728h-4.364v2.182h2.182v10.91h2.182v-4.364z" fill="#5E391A"/></g></g><defs><linearGradient id="paint0_linear_2615_65306" x1="50" y1="2" x2="50" y2="98" gradientUnits="userSpaceOnUse"><stop stop-color="#FFF3C3"/><stop offset="1" stop-color="#DE970B"/></linearGradient><linearGradient id="paint1_linear_2615_65306" x1="50" y1="8.4" x2="50" y2="91.6" gradientUnits="userSpaceOnUse"><stop stop-color="#FEEBB1"/><stop offset="1" stop-color="#E99F37"/></linearGradient><linearGradient id="paint2_linear_2615_65306" x1="50" y1="8.4" x2="50" y2="91.6" gradientUnits="userSpaceOnUse"><stop stop-color="#E38425"/><stop offset="1" stop-color="#F8AF3A"/></linearGradient><linearGradient id="paint3_linear_2615_65306" x1="50" y1="8.4" x2="50" y2="91.6" gradientUnits="userSpaceOnUse"><stop stop-color="#FEEBB1"/><stop offset="1" stop-color="#E99F37"/></linearGradient><linearGradient id="paint4_linear_2615_65306" x1="50" y1="8.4" x2="50" y2="91.6" gradientUnits="userSpaceOnUse"><stop stop-color="#FBC47A"/><stop offset="1" stop-color="#ECA43A"/></linearGradient><clipPath id="clip0_2615_65306"><path fill="#fff" d="M0 0h100v100H0z"/></clipPath></defs></svg>