<svg xmlns="http://www.w3.org/2000/svg" width="32" height="32" fill="none" viewBox="0 0 32 32"><path fill="#2F3045" d="M28 2H4v2H2v2H0v22h2V8h28v20h2V6h-2V4h-2z"/><path fill="#2F3045" fill-rule="evenodd" d="M16 10H8v2H6v2H4v8h2v2h2v2h8v-2h2v-2h2v-8h-2v-2h-2zm-6 4v-2h4v2h2v2h2v4h-2v2h-2v2h-4v-2H8v-2H6v-4h2v-2z" clip-rule="evenodd"/><path fill="#2F3045" d="M14 14h-4v2h4zm2 2h-2v4h2zm-2 6v-2h-4v2zm-6-2h2v-4H8zm12 4h-2v2h2zm-2-14v2h2v-2zM6 10H4v2h2zm0 16v-2H4v2zm24 4v-2H2v2zm-8-6h6v2h-6zm0-4h6v2h-6zm4-2v-2h-2v2zm2-4h-2v2h2zm-2-2h-2v2h2zm-4 4h2v-2h-2z"/></svg>