<svg width="28" height="28" viewBox="0 0 28 28" fill="none" xmlns="http://www.w3.org/2000/svg">
    <path d="M8.14 16.626H4.375v8.749H8.14v-8.75zm10.882 1.25v1.25h-1.673v1.25h-5.021v-1.25h5.02v-2.501h-7.95v7.499h1.256v1.25h6.695v-1.25h2.51v-1.25h1.255v-1.249h1.256v-1.25h1.255v-2.5h-4.603z" fill="#938EBA"/>
    <path fill-rule="evenodd" clip-rule="evenodd" d="M6.924 5.217h-.886v5.316h.886v1.772h.885v.886h.886v.886h1.772v.886h5.316v-.886h1.772v-.886h.886v-.886h.886v-1.772h.886V5.217h-.886V3.445h-.886V2.56h-.886v-.885h-1.772V.788h-5.316v.886H8.695v.885H7.81v.886h-.885v1.772zm2.657.886V4.774h.886v-.886h5.316v.886h.886v2.658h-.886v.886h-.886v.886h.886v.886h.886v1.772h-1.772V10.09h-.886v-.886h-.886v-.886h-.886v3.544h-1.772V8.318h-.886V6.99h.886v-.886h-.886z" fill="#938EBA"/>
    <path d="M12.24 4.774v2.658h2.214V6.99h.443V5.217h-.443v-.443h-2.215z" fill="#938EBA"/>
</svg>
