<svg xmlns="http://www.w3.org/2000/svg" width="16" height="16" fill="none" viewBox="0 0 16 16"><path fill="#1D3674" d="M0 4h1V3h1V2h1V1h10v1h1v1h1v1h1v4h-1v1h-1v1h-1v1h-1v1h-1v1h-1v1H9v1H7v-1H6v-1H5v-1H4v-1H3v-1H2V9H1V8H0z"/><path fill="#4B83CA" d="M3 3V2h10v1h1v1h1v4h-1v1h-1v1h-1v1h-1v1h-1v1H9v1H7v-1H6v-1H5v-1H4v-1H3V9H2V8H1V4h1V3z"/><path fill="#62AADF" d="M8 4v10H7v-1H6v-1H5v-1H4v-1H3V9H2V8H1V4h1V3h1V2h10v1h1v1h1v3h-1v1h-1v1h-1v1h-1v1h-1v-1h1V8h2V7h1V4h-1v1h-1V4h1V3H4v1z"/><path fill="#89D7DD" d="M2 8V6H1v2zm0 1h1V8H2zm2 1V9H3v1zm0 1h1v-1H4zm2 1v-1H5v1zm0 1h1v-1H6zm2-1v1H7v1h2v-2zm2 0v-2H9v2zM6 8h4v2h1V8h2V7H6zm8-1V6h-1v1zm-2-2v1h1V5zm0-1H6v1h6zm1-1h-1v1h1zM4 3v3H3V3z"/><path fill="#D7F3EE" d="M4 2v1H3v1h4v1H3V4H2v2h1v1h4v1H6v2h1v2h1v1H7v-1H6v-2H5V8H3V7H2V6H1V4h1V3h1V2zm4 3V4h1v1zm0 3V7h1v1z"/></svg>