<svg xmlns="http://www.w3.org/2000/svg" width="40" height="40" fill="none" viewBox="0 0 40 40"><path fill="#2530A3" d="M18.618 0h-3.333v.833h3.333zm-2.5.833h-.833V2.5h.833z"/><path fill="#EBFFFE" d="M16.951.833h-.833V20h.833z"/><path fill="#87D9FF" d="M17.785.833h-.834V20h.834z"/><path fill="#2530A3" d="M18.618.833h-.833V2.5h.833zm-3.333.834h-.834v2.5h.833zm4.166 0h-.833v2.5h.833z"/><path fill="#030874" d="M3.618 2.5h-.833v.833h.833z"/><path fill="#EBFFFE" d="M16.118 2.5h-.833v1.667h.833z"/><path fill="#0CB6FF" d="M18.618 2.5h-.833V20h.833z"/><path fill="#030874" d="M2.785 3.333H1.95v.834h.834z"/><path fill="#0CB6FF" d="M3.618 3.333h-.833v.834h.833z"/><path fill="#030874" d="M4.451 3.333h-.833v.834h.833z"/><path fill="#2530A3" d="M14.451 3.333h-.833v2.5h.833z"/><path fill="#030874" d="M20.285 3.333h-.834v2.5h.834zm-16.667.834h-.833V5h.833z"/><path fill="#EBFFFE" d="M15.285 4.167h-.834v1.666h.833z"/><path fill="#C4FAFF" d="M16.118 4.167h-.833v16.666h.833z"/><path fill="#0CB6FF" d="M19.451 4.167h-.833v1.666h.833z"/><path fill="#2530A3" d="M13.618 5h-.834v2.5h.834z"/><path fill="#030874" d="M21.118 5h-.833v2.5h.833z"/><path fill="#EBFFFE" d="M14.451 5.833h-.833V7.5h.833z"/><path fill="#C4FAFF" d="M15.285 5.833h-.834V7.5h.833z"/><path fill="#1FA9FE" d="M19.451 5.833h-.833V7.5h.833z"/><path fill="#0CB6FF" d="M20.285 5.833h-.834V7.5h.834z"/><path fill="#030874" d="M7.785 6.667H6.95V7.5h.834z"/><path fill="#2530A3" d="M12.785 6.667h-.834v2.5h.833z"/><path fill="#030874" d="M21.951 6.667h-.833v2.5h.833zm-15 .833h-.833v.833h.833z"/><path fill="#1478FF" d="M7.785 7.5H6.95v.833h.834z"/><path fill="#030874" d="M8.618 7.5h-.833v.833h.833z"/><path fill="#EBFFFE" d="M13.618 7.5h-.834v1.667h.834z"/><path fill="#C4FAFF" d="M14.451 7.5h-.833v1.667h.833z"/><path fill="#83ECFF" d="M15.285 7.5h-.834v4.167h.833z"/><path fill="#349CFE" d="M19.451 7.5h-.833v5h.833z"/><path fill="#1FA9FE" d="M20.285 7.5h-.834v1.667h.834z"/><path fill="#0CB6FF" d="M21.118 7.5h-.833v1.667h.833z"/><path fill="#030874" d="M7.785 8.333H6.95v.834h.834z"/><path fill="#2530A3" d="M11.951 8.333h-.833v2.5h.833z"/><path fill="#030874" d="M22.785 8.333h-.834v2.5h.834z"/><path fill="#EBFFFE" d="M12.785 9.167h-.834v1.666h.833z"/><path fill="#C4FAFF" d="M13.618 9.167h-.834v1.666h.834z"/><path fill="#83ECFF" d="M14.451 9.167h-.833v1.666h.833z"/><path fill="#349CFE" d="M20.285 9.167h-.834v2.5h.834z"/><path fill="#1FA9FE" d="M21.118 9.167h-.833v1.666h.833z"/><path fill="#0CB6FF" d="M21.951 9.167h-.833v1.666h.833z"/><path fill="#2530A3" d="M28.618 9.167h-.833V10h.833z"/><path fill="#030874" d="M29.451 9.167h-.833V10h.833z"/><path fill="#2530A3" d="M11.118 10h-.834v2.5h.834z"/><path fill="#030874" d="M23.618 10h-.833v2.5h.833z"/><path fill="#2530A3" d="M27.785 10h-.834v1.667h.834z"/><path fill="#1478FF" d="M29.451 10h-1.666v1.667h1.666z"/><path fill="#030874" d="M30.285 10h-.834v1.667h.834z"/><path fill="#EBFFFE" d="M11.951 10.833h-.833V12.5h.833z"/><path fill="#C4FAFF" d="M12.785 10.833h-.834V12.5h.833z"/><path fill="#83ECFF" d="M13.618 10.833h-.834v5h.834z"/><path fill="#A0F2FF" d="M14.451 10.833h-.833v.834h.833z"/><path fill="#0CB6FF" d="M21.118 10.833h-.833v.834h.833z"/><path fill="#1FA9FE" d="M21.951 10.833h-.833V12.5h.833z"/><path fill="#0CB6FF" d="M22.785 10.833h-.834V12.5h.834z"/><path fill="#2530A3" d="M10.285 11.667H9.45v2.5h.833z"/><path fill="#83ECFF" d="M14.451 11.667h-.833V15h.833z"/><path fill="#A0F2FF" d="M15.285 11.667h-.834v.833h.833z"/><path fill="#0CB6FF" d="M20.285 11.667h-.834v.833h.834z"/><path fill="#349CFE" d="M21.118 11.667h-.833V15h.833z"/><path fill="#030874" d="M24.451 11.667h-.833v2.5h.833zm5 0h-1.666v.833h1.666z"/><path fill="#2530A3" d="M4.451 12.5H2.785v.833H4.45z"/><path fill="#EBFFFE" d="M11.118 12.5h-.834v1.667h.834z"/><path fill="#C4FAFF" d="M11.951 12.5h-.833v1.667h.833z"/><path fill="#83ECFF" d="M12.785 12.5h-.834v4.167h.833zm2.5 0h-.834v1.667h.833z"/><path fill="#0CB6FF" d="M19.451 12.5h-.833v.833h.833z"/><path fill="#349CFE" d="M20.285 12.5h-.834v3.333h.834zm1.666 0h-.833v1.667h.833z"/><path fill="#1FA9FE" d="M22.785 12.5h-.834v.833h.834z"/><path fill="#0CB6FF" d="M23.618 12.5h-.833V15h.833z"/><path fill="#2530A3" d="M2.785 13.333H1.95V15h.834z"/><path fill="#1478FF" d="M4.451 13.333H2.785V15H4.45z"/><path fill="#030874" d="M5.285 13.333H4.45V15h.834z"/><path fill="#2530A3" d="M9.451 13.333h-.833v2.5h.833z"/><path fill="#349CFE" d="M19.451 13.333h-.833v3.334h.833z"/><path fill="#0CB6FF" d="M22.785 13.333h-.834v2.5h.834z"/><path fill="#030874" d="M25.285 13.333h-.834v2.5h.834z"/><path fill="#EBFFFE" d="M10.285 14.167H9.45v1.666h.833z"/><path fill="#C4FAFF" d="M11.118 14.167h-.834v1.666h.834z"/><path fill="#83ECFF" d="M11.951 14.167h-.833V17.5h.833z"/><path fill="#A0F2FF" d="M15.285 14.167h-.834V15h.833z"/><path fill="#0CB6FF" d="M21.951 14.167h-.833v2.5h.833zm2.5 0h-.833v1.666h.833z"/><path fill="#030874" d="M31.118 14.167h-.833V15h.833zM4.451 15H2.785v.833H4.45z"/><path fill="#2530A3" d="M8.618 15h-.833v2.5h.833z"/><path fill="#A0F2FF" d="M14.451 15h-.833v.833h.833z"/><path fill="#83ECFF" d="M15.285 15h-.834v.833h.833z"/><path fill="#0CB6FF" d="M21.118 15h-.833v2.5h.833z"/><path fill="#1FA9FE" d="M23.618 15h-.833v.833h.833z"/><path fill="#030874" d="M26.118 15h-.833v2.5h.833zm4.167 0h-.834v.833h.834z"/><path fill="#0CB6FF" d="M31.118 15h-.833v.833h.833z"/><path fill="#030874" d="M31.951 15h-.833v.833h.833z"/><path fill="#EBFFFE" d="M9.451 15.833h-.833V17.5h.833z"/><path fill="#C4FAFF" d="M10.285 15.833H9.45V17.5h.833z"/><path fill="#83ECFF" d="M11.118 15.833h-.834v2.5h.834z"/><path fill="#A0F2FF" d="M13.618 15.833h-.834v.834h.834z"/><path fill="#83ECFF" d="M14.451 15.833h-.833v.834h.833z"/><path fill="#A0F2FF" d="M15.285 15.833h-.834v.834h.833z"/><path fill="#0CB6FF" d="M20.285 15.833h-.834v2.5h.834z"/><path fill="#349CFE" d="M22.785 15.833h-.834v.834h.834z"/><path fill="#0CB6FF" d="M23.618 15.833h-.833v.834h.833z"/><path fill="#1FA9FE" d="M24.451 15.833h-.833V17.5h.833z"/><path fill="#0CB6FF" d="M25.285 15.833h-.834V17.5h.834z"/><path fill="#030874" d="M31.118 15.833h-.833v.834h.833z"/><path fill="#2530A3" d="M7.785 16.667H6.95v2.5h.834z"/><path fill="#A0F2FF" d="M12.785 16.667h-.834v.833h.833z"/><path fill="#83ECFF" d="M13.618 16.667h-.834v.833h.834z"/><path fill="#A0F2FF" d="M14.451 16.667h-.833v.833h.833z"/><path fill="#C4FAFF" d="M15.285 16.667h-.834v.833h.833z"/><path fill="#0CB6FF" d="M19.451 16.667h-.833v2.5h.833z"/><path fill="#349CFE" d="M21.951 16.667h-.833v.833h.833z"/><path fill="#0CB6FF" d="M22.785 16.667h-.834v.833h.834z"/><path fill="#349CFE" d="M23.618 16.667h-.833V22.5h.833z"/><path fill="#030874" d="M26.951 16.667h-.833v2.5h.833z"/><path fill="#EBFFFE" d="M8.618 17.5h-.833v1.667h.833z"/><path fill="#C4FAFF" d="M9.451 17.5h-.833v1.667h.833z"/><path fill="#83ECFF" d="M10.285 17.5H9.45v1.667h.833z"/><path fill="#A0F2FF" d="M11.951 17.5h-.833v.833h.833z"/><path fill="#83ECFF" d="M12.785 17.5h-.834v.833h.833z"/><path fill="#A0F2FF" d="M13.618 17.5h-.834v.833h.834z"/><path fill="#C4FAFF" d="M14.451 17.5h-.833v.833h.833z"/><path fill="#83ECFF" d="M15.285 17.5h-.834V20h.833z"/><path fill="#349CFE" d="M21.118 17.5h-.833v.833h.833z"/><path fill="#0CB6FF" d="M21.951 17.5h-.833v.833h.833z"/><path fill="#349CFE" d="M22.785 17.5h-.834v5.833h.834zm1.666 0h-.833v5h.833z"/><path fill="#1FA9FE" d="M25.285 17.5h-.834v1.667h.834z"/><path fill="#0CB6FF" d="M26.118 17.5h-.833v1.667h.833z"/><path fill="#2530A3" d="M6.951 18.333h-.833v2.5h.833z"/><path fill="#A0F2FF" d="M11.118 18.333h-.834v.834h.834z"/><path fill="#83ECFF" d="M11.951 18.333h-.833v.834h.833z"/><path fill="#A0F2FF" d="M12.785 18.333h-.834v.834h.833z"/><path fill="#C4FAFF" d="M13.618 18.333h-.834v.834h.834z"/><path fill="#83ECFF" d="M14.451 18.333h-.833v2.5h.833z"/><path fill="#349CFE" d="M20.285 18.333h-.834v.834h.834z"/><path fill="#0CB6FF" d="M21.118 18.333h-.833v.834h.833z"/><path fill="#349CFE" d="M21.951 18.333h-.833V22.5h.833z"/><path fill="#030874" d="M27.785 18.333h-.834v2.5h.834z"/><path fill="#EBFFFE" d="M7.785 19.167H6.95v1.666h.834z"/><path fill="#C4FAFF" d="M8.618 19.167h-.833v1.666h.833z"/><path fill="#83ECFF" d="M9.451 19.167h-.833V20h.833z"/><path fill="#A0F2FF" d="M10.285 19.167H9.45V20h.833z"/><path fill="#83ECFF" d="M11.118 19.167h-.834V20h.834z"/><path fill="#A0F2FF" d="M11.951 19.167h-.833V20h.833z"/><path fill="#C4FAFF" d="M12.785 19.167h-.834V20h.833z"/><path fill="#83ECFF" d="M13.618 19.167h-.834v2.5h.834z"/><path fill="#349CFE" d="M19.451 19.167h-.833V20h.833z"/><path fill="#0CB6FF" d="M20.285 19.167h-.834V20h.834z"/><path fill="#349CFE" d="M21.118 19.167h-.833v2.5h.833zm4.167 0h-.834V22.5h.834z"/><path fill="#1FA9FE" d="M26.118 19.167h-.833v1.666h.833z"/><path fill="#0CB6FF" d="M26.951 19.167h-.833v1.666h.833z"/><path fill="#2530A3" d="M6.118 20h-.833v2.5h.833z"/><path fill="#A0F2FF" d="M9.451 20h-.833v.833h.833z"/><path fill="#83ECFF" d="M10.285 20H9.45v.833h.833z"/><path fill="#A0F2FF" d="M11.118 20h-.834v.833h.834z"/><path fill="#C4FAFF" d="M11.951 20h-.833v.833h.833z"/><path fill="#83ECFF" d="M12.785 20h-.834v2.5h.833z"/><path fill="#A0F2FF" d="M15.285 20h-.834v.833h.833z"/><path fill="#fff" d="M17.785 20h-1.667v.833h1.667z"/><path fill="#87D9FF" d="M18.618 20h-.833v.833h.833z"/><path fill="#0CB6FF" d="M19.451 20h-.833v.833h.833z"/><path fill="#349CFE" d="M20.285 20h-.834v.833h.834z"/><path fill="#030874" d="M28.618 20h-.833v2.5h.833z"/><path fill="#EBFFFE" d="M6.951 20.833h-.833V22.5h.833z"/><path fill="#C4FAFF" d="M7.785 20.833H6.95v2.5h.834z"/><path fill="#A0F2FF" d="M8.618 20.833h-.833V22.5h.833z"/><path fill="#83ECFF" d="M9.451 20.833h-.833v.834h.833z"/><path fill="#A0F2FF" d="M10.285 20.833H9.45v.834h.833z"/><path fill="#C4FAFF" d="M11.118 20.833h-.834v.834h.834z"/><path fill="#83ECFF" d="M11.951 20.833h-.833v2.5h.833z"/><path fill="#A0F2FF" d="M14.451 20.833h-.833v.834h.833z"/><path fill="#C4FAFF" d="M15.285 20.833h-.834v.834h.833z"/><path fill="#EBFFFE" d="M16.118 20.833h-.833v.834h.833z"/><path fill="#83ECFF" d="M17.785 20.833h-1.667v5h1.667z"/><path fill="#EBFFFE" d="M18.618 20.833h-.833v.834h.833z"/><path fill="#87D9FF" d="M19.451 20.833h-.833v.834h.833z"/><path fill="#0CB6FF" d="M20.285 20.833h-.834v.834h.834z"/><path fill="#349CFE" d="M26.118 20.833h-.833V22.5h.833z"/><path fill="#1FA9FE" d="M26.951 20.833h-.833V22.5h.833z"/><path fill="#0CB6FF" d="M27.785 20.833h-.834V22.5h.834z"/><path fill="#0F156E" d="M32.785 20.833h-2.5v.834h2.5z"/><path fill="#02044F" d="M33.618 20.833h-.834v2.5h.834z"/><path fill="#2530A3" d="M5.285 21.667H4.45V32.5h.834z"/><path fill="#A0F2FF" d="M9.451 21.667h-.833v.833h.833z"/><path fill="#C4FAFF" d="M10.285 21.667H9.45v.833h.833z"/><path fill="#83ECFF" d="M11.118 21.667h-.834v.833h.834z"/><path fill="#A0F2FF" d="M13.618 21.667h-.834v.833h.834z"/><path fill="#C4FAFF" d="M14.451 21.667h-.833v.833h.833z"/><path fill="#EBFFFE" d="M15.285 21.667h-.834v.833h.833z"/><path fill="#83ECFF" d="M16.118 21.667h-.833V27.5h.833zm2.5 0h-.833V25h.833z"/><path fill="#C4FAFF" d="M19.451 21.667h-.833v.833h.833z"/><path fill="#87D9FF" d="M20.285 21.667h-.834v.833h.834z"/><path fill="#0CB6FF" d="M21.118 21.667h-.833v.833h.833z"/><path fill="#030874" d="M29.451 21.667h-.833V32.5h.833z"/><path fill="#0F156E" d="M31.118 21.667h-.833v1.666h.833z"/><path fill="#606BAC" d="M31.951 21.667h-.833v.833h.833z"/><path fill="#1B55AC" d="M32.785 21.667h-.834V30h.834z"/><path fill="#C4FAFF" d="M6.951 22.5H5.285v.833H6.95zm2.5 0H7.785v.833H9.45z"/><path fill="#A0F2FF" d="M11.118 22.5H9.45v.833h1.667zm1.667 0h-.834v.833h.833z"/><path fill="#C4FAFF" d="M13.618 22.5h-.834v.833h.834z"/><path fill="#EBFFFE" d="M14.451 22.5h-.833v.833h.833z"/><path fill="#83ECFF" d="M15.285 22.5h-.834v5.833h.833zm4.166 0h-.833v1.667h.833z"/><path fill="#A5F3FF" d="M20.285 22.5h-.834v.833h.834z"/><path fill="#87D9FF" d="M21.118 22.5h-.833v.833h.833z"/><path fill="#0CB6FF" d="M21.951 22.5h-.833v.833h.833zm3.334 0h-2.5v.833h2.5z"/><path fill="#5FCDFF" d="M26.118 22.5h-.833v.833h.833z"/><path fill="#41C5FF" d="M27.785 22.5h-1.667v.833h1.667z"/><path fill="#0CB6FF" d="M28.618 22.5h-.833v.833h.833z"/><path fill="#0F156E" d="M30.285 22.5h-.834V25h.834z"/><path fill="#5069AC" d="M31.951 22.5h-.833V30h.833z"/><path fill="#02044F" d="M34.451 22.5h-.833V25h.833z"/><path fill="#C4FAFF" d="M6.118 23.333h-.833v5h.833z"/><path fill="#64D6FF" d="M8.618 23.333h-2.5v.834h2.5z"/><path fill="#C4FAFF" d="M11.118 23.333h-2.5v.834h2.5z"/><path fill="#A0F2FF" d="M11.951 23.333h-.833v.834h.833z"/><path fill="#C4FAFF" d="M12.785 23.333h-.834v.834h.833z"/><path fill="#EBFFFE" d="M13.618 23.333h-.834v.834h.834z"/><path fill="#83ECFF" d="M14.451 23.333h-.833v5.834h.833z"/><path fill="#C4FAFF" d="M20.285 23.333h-.834v.834h.834z"/><path fill="#A5F3FF" d="M21.118 23.333h-.833v.834h.833z"/><path fill="#87D9FF" d="M21.951 23.333h-.833v.834h.833z"/><path fill="#0CB6FF" d="M22.785 23.333h-.834v.834h.834z"/><path fill="#70D2FF" d="M25.285 23.333h-2.5v.834h2.5z"/><path fill="#46A2FF" d="M27.785 23.333h-2.5v.834h2.5z"/><path fill="#2888FF" d="M28.618 23.333h-.833v8.334h.833z"/><path fill="#606BAC" d="M31.118 23.333h-.833v.834h.833z"/><path fill="#054DAC" d="M33.618 23.333h-.834V25h.834z"/><path fill="#0CB6FF" d="M8.618 24.167h-2.5V25h2.5z"/><path fill="#64D6FF" d="M11.118 24.167h-2.5V25h2.5z"/><path fill="#C4FAFF" d="M11.951 24.167h-.833V30h.833z"/><path fill="#EBFFFE" d="M12.785 24.167h-.834V30h.833z"/><path fill="#83ECFF" d="M13.618 24.167h-.834V30h.834z"/><path fill="#C4FAFF" d="M19.451 24.167h-.833V25h.833z"/><path fill="#83ECFF" d="M21.118 24.167H19.45V25h1.667z"/><path fill="#A5F3FF" d="M21.951 24.167h-.833V30h.833z"/><path fill="#5FCDFF" d="M22.785 24.167h-.834v5h.834z"/><path fill="#46A2FF" d="M25.285 24.167h-2.5V25h2.5z"/><path fill="#1478FF" d="M27.785 24.167h-2.5v6.666h2.5z"/><path fill="#5069AC" d="M31.118 24.167h-.833V25h.833z"/><path fill="#02044F" d="M35.285 24.167h-.834v2.5h.834z"/><path fill="#0CB6FF" d="M7.785 25H6.118v.833h1.667z"/><path fill="#4DD4FF" d="M8.618 25h-.833v.833h.833z"/><path fill="#0CB6FF" d="M10.285 25H8.618v5h1.666z"/><path fill="#64D6FF" d="M11.118 25h-.834v5h.834z"/><path fill="#C4FAFF" d="M18.618 25h-.833v.833h.833z"/><path fill="#83ECFF" d="M20.285 25h-1.667v.833h1.667z"/><path fill="#C4FAFF" d="M21.118 25h-.833v1.667h.833z"/><path fill="#46A2FF" d="M23.618 25h-.833v5h.833z"/><path fill="#1478FF" d="M25.285 25h-1.667v5h1.667z"/><path fill="#606BAC" d="M30.285 25h-.834v.833h.834z"/><path fill="#3663AC" d="M31.118 25h-.833v2.5h.833z"/><path fill="#1642AC" d="M33.618 25h-.834v.833h.834z"/><path fill="#054DAC" d="M34.451 25h-.833v1.667h.833z"/><path fill="#0CB6FF" d="M6.951 25.833h-.833v.834h.833z"/><path fill="#4DD4FF" d="M7.785 25.833H6.95v.834h.834z"/><path fill="#0CB6FF" d="M8.618 25.833h-.833v5h.833z"/><path fill="#83ECFF" d="M16.951 25.833h-.833v.834h.833z"/><path fill="#C4FAFF" d="M17.785 25.833h-.834v.834h.834z"/><path fill="#83ECFF" d="M19.451 25.833h-1.666v.834h1.666z"/><path fill="#C4FAFF" d="M20.285 25.833h-.834V27.5h.834z"/><path fill="#5069AC" d="M30.285 25.833h-.834v.834h.834z"/><path fill="#054DAC" d="M33.618 25.833h-.834v.834h.834z"/><path fill="#02044F" d="M36.118 25.833h-.834v2.5h.834z"/><path fill="#4DD4FF" d="M6.951 26.667h-.833v.833h.833z"/><path fill="#0CB6FF" d="M7.785 26.667H6.95v4.166h.834z"/><path fill="#C4FAFF" d="M16.951 26.667h-.833v.833h.833z"/><path fill="#83ECFF" d="M18.618 26.667H16.95v.833h1.667z"/><path fill="#C4FAFF" d="M19.451 26.667h-.833v1.666h.833z"/><path fill="#A5F3FF" d="M21.118 26.667h-.833v.833h.833z"/><path fill="#3663AC" d="M30.285 26.667h-.834v1.666h.834z"/><path fill="#1642AC" d="M34.451 26.667h-1.666v.833h1.666z"/><path fill="#054DAC" d="M35.285 26.667h-.834v1.666h.834z"/><path fill="#0CB6FF" d="M6.951 27.5h-.833v4.167h.833z"/><path fill="#C4FAFF" d="M16.118 27.5h-.833v.833h.833z"/><path fill="#83ECFF" d="M17.785 27.5h-1.667v.833h1.667z"/><path fill="#C4FAFF" d="M18.618 27.5h-.833v1.667h.833z"/><path fill="#A5F3FF" d="M20.285 27.5h-.834v.833h.834z"/><path fill="#83ECFF" d="M21.118 27.5h-.833V30h.833z"/><path fill="#4266AC" d="M31.118 27.5h-.833v1.667h.833z"/><path fill="#1642AC" d="M33.618 27.5h-.834v.833h.834z"/><path fill="#054DAC" d="M34.451 27.5h-.833v.833h.833z"/><path fill="#02044F" d="M36.951 27.5h-.833V30h.833z"/><path fill="#93EBFF" d="M6.118 28.333h-.833v.834h.833z"/><path fill="#C4FAFF" d="M15.285 28.333h-.834v.834h.833z"/><path fill="#83ECFF" d="M16.951 28.333h-1.667v.834h1.667z"/><path fill="#C4FAFF" d="M17.785 28.333h-.834V30h.834z"/><path fill="#A5F3FF" d="M19.451 28.333h-.833v.834h.833z"/><path fill="#83ECFF" d="M20.285 28.333h-.834v2.5h.834z"/><path fill="#4266AC" d="M30.285 28.333h-.834V30h.834z"/><path fill="#054DAC" d="M33.618 28.333h-.834v.834h.834z"/><path fill="#1642AC" d="M35.285 28.333h-1.667v.834h1.666z"/><path fill="#054DAC" d="M36.118 28.333h-.834V30h.834z"/><path fill="#76E1FF" d="M6.118 29.167h-.833V30h.833z"/><path fill="#C4FAFF" d="M14.451 29.167h-.833V30h.833z"/><path fill="#83ECFF" d="M16.118 29.167H14.45V30h1.667z"/><path fill="#C4FAFF" d="M16.951 29.167h-.833v1.666h.833z"/><path fill="#A5F3FF" d="M18.618 29.167h-.833V30h.833z"/><path fill="#83ECFF" d="M19.451 29.167h-.833v2.5h.833z"/><path fill="#0CB6FF" d="M22.785 29.167h-.834V30h.834z"/><path fill="#3663AC" d="M31.118 29.167h-.833V30h.833z"/><path fill="#254FAC" d="M34.451 29.167h-1.666V30h1.666z"/><path fill="#1642AC" d="M35.285 29.167h-.834V30h.834z"/><path fill="#02044F" d="M37.785 29.167h-.834v7.5h.834z"/><path fill="#4DD4FF" d="M6.118 30h-.833v1.667h.833zm6.667 0H8.618v.833h4.166z"/><path fill="#EBFFFE" d="M13.618 30h-.834v.833h.834z"/><path fill="#83ECFF" d="M15.285 30h-1.667v.833h1.666z"/><path fill="#C4FAFF" d="M16.118 30h-.833v1.667h.833z"/><path fill="#A5F3FF" d="M17.785 30h-.834v.833h.834z"/><path fill="#83ECFF" d="M18.618 30h-.833v2.5h.833z"/><path fill="#97F0FF" d="M21.118 30h-.833v.833h.833z"/><path fill="#0CB6FF" d="M21.951 30h-.833v.833h.833z"/><path fill="#1478FF" d="M22.785 30h-.834v.833h.834z"/><path fill="#0CB6FF" d="M25.285 30h-2.5v.833h2.5z"/><path fill="#3663AC" d="M30.285 30h-.834v.833h.834z"/><path fill="#4266AC" d="M31.118 30h-.833v.833h.833z"/><path fill="#606BAC" d="M32.785 30h-1.667v.833h1.667z"/><path fill="#054DAC" d="M33.618 30h-.834v.833h.834z"/><path fill="#1642AC" d="M34.451 30h-.833v.833h.833z"/><path fill="#2E59AC" d="M36.118 30H34.45v.833h1.667z"/><path fill="#0D47AC" d="M36.951 30h-.833v5h.833z"/><path fill="#4DD4FF" d="M8.618 30.833H6.95v.834h1.667z"/><path fill="#1F64FF" d="M11.951 30.833H8.618v.834h3.333z"/><path fill="#0CB6FF" d="M12.785 30.833h-.834v.834h.833z"/><path fill="#4DD4FF" d="M13.618 30.833h-.834v.834h.834z"/><path fill="#A5F3FF" d="M14.451 30.833h-.833v.834h.833z"/><path fill="#C4FAFF" d="M15.285 30.833h-.834v.834h.833z"/><path fill="#A5F3FF" d="M16.951 30.833h-.833v.834h.833z"/><path fill="#83ECFF" d="M17.785 30.833h-.834v2.5h.834z"/><path fill="#97F0FF" d="M20.285 30.833h-.834v.834h.834z"/><path fill="#0CB6FF" d="M21.118 30.833h-.833v.834h.833z"/><path fill="#3144FF" d="M25.285 30.833h-4.167v.834h4.167z"/><path fill="#1097FF" d="M26.951 30.833h-1.666v.834h1.666z"/><path fill="#1478FF" d="M27.785 30.833h-.834v.834h.834z"/><path fill="#4266AC" d="M30.285 30.833h-.834v.834h.834z"/><path fill="#606BAC" d="M31.118 30.833h-.833v.834h.833z"/><path fill="#3663AC" d="M32.785 30.833h-1.667V35h1.667z"/><path fill="#4466AC" d="M33.618 30.833h-.834v.834h.834z"/><path fill="#2E59AC" d="M34.451 30.833h-.833v.834h.833z"/><path fill="#0833AC" d="M36.118 30.833H34.45v3.334h1.667z"/><path fill="#2530A3" d="M6.118 31.667h-.833v.833h.833z"/><path fill="#4DD4FF" d="M6.951 31.667h-.833v.833h.833z"/><path fill="#1F64FF" d="M8.618 31.667H6.95v.833h1.667z"/><path fill="#1478FF" d="M11.951 31.667H8.618v1.666h3.333z"/><path fill="#1F64FF" d="M12.785 31.667h-.834v.833h.833z"/><path fill="#0CB6FF" d="M13.618 31.667h-.834v.833h.834z"/><path fill="#4DD4FF" d="M14.451 31.667h-.833v.833h.833z"/><path fill="#A5F3FF" d="M16.118 31.667H14.45v.833h1.667z"/><path fill="#83ECFF" d="M16.951 31.667h-.833v1.666h.833z"/><path fill="#97F0FF" d="M19.451 31.667h-.833v.833h.833z"/><path fill="#0CB6FF" d="M20.285 31.667h-.834v.833h.834z"/><path fill="#3144FF" d="M21.118 31.667h-.833v.833h.833z"/><path fill="#2B3CE9" d="M21.951 31.667h-.833v.833h.833z"/><path fill="#2635D6" d="M25.285 31.667H21.95v1.666h3.334z"/><path fill="#3144FF" d="M26.951 31.667h-1.666v.833h1.666z"/><path fill="#1097FF" d="M27.785 31.667h-.834v.833h.834z"/><path fill="#030874" d="M28.618 31.667h-.833v1.666h.833z"/><path fill="#606BAC" d="M30.285 31.667h-.834v2.5h.834z"/><path fill="#3663AC" d="M31.118 31.667h-.833v2.5h.833zm2.5 0h-.834v2.5h.834z"/><path fill="#4466AC" d="M34.451 31.667h-.833v2.5h.833z"/><path fill="#030874" d="M6.951 32.5H5.285v.833H6.95z"/><path fill="#46B3FF" d="M7.785 32.5H6.95v.833h.834z"/><path fill="#1F64FF" d="M8.618 32.5h-.833v.833h.833z"/><path fill="#1478FF" d="M12.785 32.5h-.834v4.167h.833z"/><path fill="#1F64FF" d="M13.618 32.5h-.834v.833h.834z"/><path fill="#0CB6FF" d="M14.451 32.5h-.833v.833h.833z"/><path fill="#4DD4FF" d="M15.285 32.5h-.834v.833h.833z"/><path fill="#A5F3FF" d="M16.118 32.5h-.833v.833h.833z"/><path fill="#97F0FF" d="M18.618 32.5h-.833v.833h.833z"/><path fill="#0CB6FF" d="M19.451 32.5h-.833v.833h.833z"/><path fill="#3144FF" d="M20.285 32.5h-.834v.833h.834z"/><path fill="#2B3CE9" d="M21.118 32.5h-.833v.833h.833z"/><path fill="#2635D6" d="M21.951 32.5h-.833v4.167h.833z"/><path fill="#3144FF" d="M26.118 32.5h-.833v.833h.833z"/><path fill="#1097FF" d="M26.951 32.5h-.833v.833h.833z"/><path fill="#030874" d="M27.785 32.5h-.834v1.667h.834z"/><path fill="#295AAC" d="M29.451 32.5h-.833v1.667h.833z"/><path fill="#030874" d="M7.785 33.333H6.118v.834h1.667z"/><path fill="#46B3FF" d="M8.618 33.333h-.833v.834h.833z"/><path fill="#1F64FF" d="M9.451 33.333h-.833v.834h.833z"/><path fill="#1478FF" d="M11.951 33.333h-2.5v.834h2.5zm1.667 0h-.834V37.5h.834z"/><path fill="#1F64FF" d="M14.451 33.333h-.833v.834h.833z"/><path fill="#0CB6FF" d="M15.285 33.333h-.834v.834h.833z"/><path fill="#4DD4FF" d="M16.118 33.333h-.833v.834h.833z"/><path fill="#97F0FF" d="M16.951 33.333h-.833v.834h.833z"/><path fill="#4DD4FF" d="M17.785 33.333h-.834v.834h.834z"/><path fill="#0CB6FF" d="M18.618 33.333h-.833v.834h.833z"/><path fill="#3144FF" d="M19.451 33.333h-.833v.834h.833z"/><path fill="#2B3CE9" d="M20.285 33.333h-.834v.834h.834z"/><path fill="#2635D6" d="M21.118 33.333h-.833V37.5h.833zm3.333 0h-2.5v.834h2.5z"/><path fill="#3144FF" d="M25.285 33.333h-.834v.834h.834z"/><path fill="#1097FF" d="M26.118 33.333h-.833v.834h.833z"/><path fill="#030874" d="M26.951 33.333h-.833V35h.833z"/><path fill="#054DAC" d="M28.618 33.333h-.833v.834h.833z"/><path fill="#030874" d="M8.618 34.167H6.95V35h1.667z"/><path fill="#3F8FFF" d="M9.451 34.167h-.833V35h.833z"/><path fill="#1F64FF" d="M10.285 34.167H9.45V35h.833z"/><path fill="#1478FF" d="M11.951 34.167h-1.667V35h1.667zm2.5 0h-.833V37.5h.833z"/><path fill="#1F64FF" d="M15.285 34.167h-.834V35h.833z"/><path fill="#0CB6FF" d="M16.118 34.167h-.833V35h.833z"/><path fill="#4DD4FF" d="M16.951 34.167h-.833V35h.833z"/><path fill="#0CB6FF" d="M17.785 34.167h-.834V35h.834z"/><path fill="#3144FF" d="M18.618 34.167h-.833V35h.833z"/><path fill="#2B3CE9" d="M19.451 34.167h-.833V35h.833z"/><path fill="#2635D6" d="M20.285 34.167h-.834v4.166h.834zm3.333 0H21.95V35h1.667z"/><path fill="#3144FF" d="M24.451 34.167h-.833V35h.833z"/><path fill="#1475EB" d="M25.285 34.167h-.834V35h.834z"/><path fill="#030874" d="M26.118 34.167h-.833v1.666h.833z"/><path fill="#054DAC" d="M27.785 34.167h-.834V35h.834z"/><path fill="#2059AC" d="M30.285 34.167h-2.5V35h2.5z"/><path fill="#4466AC" d="M31.118 34.167h-.833V35h.833zm2.5 0h-.834V35h.834z"/><path fill="#054DAC" d="M36.118 34.167h-2.5V35h2.5z"/><path fill="#030874" d="M9.451 35H7.785v.833H9.45z"/><path fill="#3F8FFF" d="M10.285 35H9.45v.833h.833z"/><path fill="#1F64FF" d="M11.118 35h-.834v.833h.834z"/><path fill="#1478FF" d="M11.951 35h-.833v.833h.833zm3.334 0h-.834v2.5h.833z"/><path fill="#1F64FF" d="M16.118 35h-.833v3.333h.833z"/><path fill="#0CB6FF" d="M16.951 35h-.833v.833h.833z"/><path fill="#3144FF" d="M17.785 35h-.834v4.167h.834z"/><path fill="#2B3CE9" d="M18.618 35h-.833v3.333h.833z"/><path fill="#2635D6" d="M19.451 35h-.833v3.333h.833zm3.334 0h-.834v.833h.834z"/><path fill="#3144FF" d="M23.618 35h-.833v.833h.833z"/><path fill="#1478FF" d="M24.451 35h-.833v.833h.833z"/><path fill="#030874" d="M25.285 35h-.834v1.667h.834z"/><path fill="#0F156E" d="M26.951 35h-.833v.833h.833z"/><path fill="#0D2AAC" d="M30.285 35H26.95v.833h3.334z"/><path fill="#2059AC" d="M31.118 35h-.833v.833h.833z"/><path fill="#4466AC" d="M32.785 35h-1.667v.833h1.667z"/><path fill="#054DAC" d="M33.618 35h-.834v.833h.834z"/><path fill="#121A9D" d="M34.451 35h-.833v.833h.833z"/><path fill="#101790" d="M36.118 35H34.45v.833h1.667z"/><path fill="#054DAC" d="M36.951 35h-.833v.833h.833z"/><path fill="#030874" d="M10.285 35.833H8.618v.834h1.666z"/><path fill="#2274FF" d="M11.118 35.833h-.834v.834h.834z"/><path fill="#1F64FF" d="M11.951 35.833h-.833v.834h.833z"/><path fill="#13A0FF" d="M16.951 35.833h-.833v.834h.833z"/><path fill="#3144FF" d="M22.785 35.833h-.834v.834h.834z"/><path fill="#1478FF" d="M23.618 35.833h-.833v.834h.833z"/><path fill="#030874" d="M24.451 35.833h-.833V37.5h.833z"/><path fill="#02044F" d="M27.785 35.833h-1.667v.834h1.667z"/><path fill="#0E31AC" d="M28.618 35.833h-.833v.834h.833z"/><path fill="#0833AC" d="M30.285 35.833h-1.667v.834h1.667z"/><path fill="#0D2AAC" d="M31.118 35.833h-.833v2.5h.833z"/><path fill="#2059AC" d="M31.951 35.833h-.833v.834h.833z"/><path fill="#054DAC" d="M32.785 35.833h-.834v.834h.834z"/><path fill="#121A9D" d="M33.618 35.833h-.834v.834h.834z"/><path fill="#101790" d="M35.285 35.833h-1.667v.834h1.666z"/><path fill="#151DAC" d="M36.118 35.833h-.834v.834h.834z"/><path fill="#02044F" d="M36.951 35.833h-.833V37.5h.833z"/><path fill="#030874" d="M11.118 36.667H9.45v.833h1.667z"/><path fill="#2274FF" d="M11.951 36.667h-.833v.833h.833z"/><path fill="#1F64FF" d="M12.785 36.667h-.834v.833h.833z"/><path fill="#1891FF" d="M16.951 36.667h-.833v1.666h.833z"/><path fill="#3144FF" d="M21.951 36.667h-.833v.833h.833z"/><path fill="#1478FF" d="M22.785 36.667h-.834v.833h.834z"/><path fill="#030874" d="M23.618 36.667h-.833v1.666h.833z"/><path fill="#02044F" d="M28.618 36.667H26.95v.833h1.667z"/><path fill="#0E31AC" d="M29.451 36.667h-.833v.833h.833z"/><path fill="#0833AC" d="M30.285 36.667h-.834v.833h.834z"/><path fill="#1949AC" d="M31.951 36.667h-.833v1.666h.833z"/><path fill="#0D2DA3" d="M32.785 36.667h-.834v1.666h.834z"/><path fill="#101790" d="M34.451 36.667h-1.666v.833h1.666z"/><path fill="#151DAC" d="M35.285 36.667h-.834v.833h.834z"/><path fill="#02044F" d="M36.118 36.667h-.834v1.666h.834z"/><path fill="#030874" d="M11.951 37.5h-1.667v.833h1.667z"/><path fill="#2274FF" d="M12.785 37.5h-.834v.833h.833z"/><path fill="#1F64FF" d="M15.285 37.5h-2.5v.833h2.5z"/><path fill="#3144FF" d="M21.118 37.5h-.833v.833h.833z"/><path fill="#1478FF" d="M21.951 37.5h-.833v.833h.833z"/><path fill="#030874" d="M22.785 37.5h-.834v1.667h.834z"/><path fill="#02044F" d="M29.451 37.5h-1.666v.833h1.666z"/><path fill="#0E31AC" d="M30.285 37.5h-.834v.833h.834z"/><path fill="#101790" d="M33.618 37.5h-.834v.833h.834z"/><path fill="#151DAC" d="M34.451 37.5h-.833v.833h.833z"/><path fill="#02044F" d="M35.285 37.5h-.834v1.667h.834z"/><path fill="#030874" d="M12.785 38.333h-1.667v.834h1.666z"/><path fill="#2274FF" d="M16.118 38.333h-3.333v.834h3.333z"/><path fill="#13A0FF" d="M16.951 38.333h-.833v.834h.833z"/><path fill="#3144FF" d="M20.285 38.333h-2.5v.834h2.5z"/><path fill="#1478FF" d="M21.118 38.333h-.833v.834h.833z"/><path fill="#030874" d="M21.951 38.333h-.833V40h.833z"/><path fill="#02044F" d="M30.285 38.333h-1.667v.834h1.667z"/><path fill="#0E31AC" d="M31.118 38.333h-.833v.834h.833z"/><path fill="#194BAC" d="M31.951 38.333h-.833v.834h.833z"/><path fill="#0E30AC" d="M32.785 38.333h-.834v.834h.834z"/><path fill="#151DAC" d="M33.618 38.333h-.834v.834h.834z"/><path fill="#02044F" d="M34.451 38.333h-.833V40h.833z"/><path fill="#030874" d="M21.118 39.167H11.95V40h9.167z"/><path fill="#02044F" d="M33.618 39.167H29.45V40h4.167z"/></svg>