<svg xmlns="http://www.w3.org/2000/svg" width="42" height="42" fill="none" viewBox="0 0 42 42"><path fill="#218321" stroke="#62BC62" d="M2.133 16.297c2.6-10.42 13.151-16.764 23.57-14.164 10.257 2.56 16.565 12.824 14.28 23.085l-.116.489c-2.596 10.419-13.152 16.76-23.574 14.16s-16.76-13.15-14.16-23.57z"/><g fill="#D9D9D9" filter="url(#a)"><path d="M9 14v3.333h5.143V29h3.428V17.333h1.715v-1.666H21V14z"/><path d="M19.286 27.333H21V29h3.429v-1.667h3.428V29h3.429v-1.667H33V14h-3.429v11.667h-1.714V14H24.43v11.667h-1.715v-10H21v1.666h-1.714z"/></g><defs><filter id="a" width="24" height="16" x="9" y="14" color-interpolation-filters="sRGB" filterUnits="userSpaceOnUse"><feFlood flood-opacity="0" result="BackgroundImageFix"/><feColorMatrix in="SourceAlpha" result="hardAlpha" values="0 0 0 0 0 0 0 0 0 0 0 0 0 0 0 0 0 0 127 0"/><feOffset dy="1"/><feComposite in2="hardAlpha" operator="out"/><feColorMatrix values="0 0 0 0 0 0 0 0 0 0 0 0 0 0 0 0 0 0 0.35 0"/><feBlend in2="BackgroundImageFix" result="effect1_dropShadow_7410_145578"/><feBlend in="SourceGraphic" in2="effect1_dropShadow_7410_145578" result="shape"/></filter></defs></svg>